<svg xmlns="http://www.w3.org/2000/svg" id="canvas" viewBox="797.135 325.059 350.698 243.922"><path d="M 858.77,356.20 C 857.97 357.72, 857.75 359.51, 856.21 364.21 C 854.67 368.90, 853.81 371.95, 851.07 379.69 C 848.34 387.43, 846.40 392.64, 842.54 402.89 C 838.68 413.15, 836.23 419.36, 831.77 430.99 C 827.30 442.61, 824.56 449.28, 820.21 461.01 C 815.86 472.74, 813.45 479.18, 810.01 489.65 C 806.56 500.13, 804.97 505.52, 803.00 513.37 C 801.02 521.23, 800.22 524.69, 800.14 528.91 C 800.06 533.14, 800.85 534.56, 802.58 534.51 C 804.31 534.46, 805.78 533.10, 808.79 528.67 C 811.80 524.24, 813.49 520.46, 817.65 512.36 C 821.81 504.27, 824.25 498.82, 829.59 488.18 C 834.93 477.54, 838.08 471.11, 844.33 459.17 C 850.59 447.22, 854.15 440.52, 860.86 428.44 C 867.57 416.35, 871.23 409.95, 877.88 398.73 C 884.52 387.51, 887.98 381.85, 894.06 372.33 C 900.15 362.82, 903.17 358.29, 908.30 351.16 C 913.43 344.03, 915.91 340.94, 919.73 336.68 C 923.54 332.42, 925.50 330.90, 927.37 329.88 C 929.24 328.85, 929.12 328.91, 929.06 331.55 C 929.00 334.20, 928.57 337.01, 927.06 343.10 C 925.55 349.19, 924.07 353.71, 921.49 362.00 C 918.90 370.30, 916.99 375.66, 914.13 384.58 C 911.27 393.49, 909.45 398.59, 907.19 406.58 C 904.93 414.56, 903.71 418.55, 902.82 424.51 C 901.93 430.48, 901.55 433.11, 902.75 436.41 C 903.94 439.71, 905.47 440.94, 908.80 441.00 C 912.13 441.06, 914.34 439.87, 919.39 436.71 C 924.45 433.55, 927.53 430.85, 934.08 425.19 C 940.63 419.54, 944.61 415.62, 952.16 408.44 C 959.70 401.26, 964.06 396.75, 971.83 389.31 C 979.59 381.86, 983.85 377.67, 990.98 371.21 C 998.11 364.75, 1001.78 361.49, 1007.49 356.99 C 1013.20 352.49, 1016.19 350.52, 1019.52 348.70 C 1022.86 346.88, 1023.56 346.44, 1024.18 347.89 C 1024.80 349.34, 1024.32 351.00, 1022.63 355.95 C 1020.94 360.89, 1019.36 364.64, 1015.73 372.61 C 1012.09 380.58, 1009.39 385.80, 1004.45 395.78 C 999.52 405.77, 996.32 411.72, 991.06 422.55 C 985.80 433.39, 982.76 439.35, 978.15 449.96 C 973.54 460.58, 971.22 466.14, 968.02 475.62 C 964.82 485.11, 963.44 489.78, 962.15 497.39 C 960.86 505.01, 960.70 508.35, 961.58 513.70 C 962.46 519.06, 963.57 521.22, 966.57 524.16 C 969.57 527.10, 971.80 527.97, 976.60 528.40 C 981.40 528.82, 984.37 528.28, 990.56 526.31 C 996.74 524.33, 1000.28 522.64, 1007.51 518.51 C 1014.75 514.39, 1018.75 511.64, 1026.74 505.68 C 1034.73 499.72, 1039.08 496.06, 1047.46 488.71 C 1055.84 481.36, 1060.30 477.10, 1068.62 468.92 C 1076.95 460.73, 1081.25 456.25, 1089.10 447.78 C 1096.94 439.32, 1100.94 434.79, 1107.86 426.62 C 1114.77 418.44, 1118.17 414.24, 1123.67 406.91 C 1129.18 399.58, 1131.60 396.05, 1135.37 389.97 C 1139.14 383.89, 1140.64 381.13, 1142.52 376.50 C 1144.40 371.88, 1145.07 369.90, 1144.76 366.83 C 1144.44 363.76, 1143.37 362.31, 1140.93 361.15 C 1138.49 360.00, 1136.55 359.98, 1132.54 361.04 C 1128.53 362.11, 1126.04 363.37, 1120.89 366.47 C 1115.73 369.57, 1112.52 371.77, 1106.78 376.54 C 1101.04 381.32, 1097.74 384.42, 1092.20 390.34 C 1086.65 396.27, 1083.63 399.69, 1079.06 406.17 C 1074.50 412.65, 1072.29 416.12, 1069.37 422.76 C 1066.46 429.40, 1065.45 432.82, 1064.49 439.37 C 1063.53 445.92, 1063.68 449.18, 1064.56 455.49 C 1065.43 461.81, 1066.60 464.93, 1068.86 470.93 C 1071.12 476.93, 1072.92 479.88, 1075.87 485.50 C 1078.82 491.11, 1080.77 493.84, 1083.59 499.01 C 1086.42 504.19, 1088.02 506.69, 1089.99 511.37 C 1091.96 516.06, 1092.90 518.28, 1093.45 522.43 C 1094.00 526.59, 1093.99 528.45, 1092.74 532.14 C 1091.50 535.82, 1090.39 537.55, 1087.21 540.87 C 1084.02 544.19, 1081.87 545.83, 1076.83 548.72 C 1071.78 551.62, 1068.42 553.04, 1061.98 555.34 C 1055.55 557.64, 1051.64 558.65, 1044.66 560.21 C 1037.68 561.77, 1033.77 562.36, 1027.10 563.13 C 1020.43 563.90, 1016.90 564.03, 1011.31 564.06 C 1005.73 564.09, 1003.07 563.78, 999.17 563.27 C 995.27 562.76, 993.35 561.62, 991.81 561.50 C 990.27 561.39, 990.04 561.95, 991.46 562.70 C 992.87 563.46, 994.90 564.62, 998.88 565.27 C 1002.85 565.92, 1005.65 566.05, 1011.33 565.95 C 1017.02 565.86, 1020.56 565.63, 1027.30 564.81 C 1034.04 563.98, 1037.97 563.40, 1045.02 561.84 C 1052.08 560.28, 1056.02 559.30, 1062.57 557.02 C 1069.13 554.74, 1072.56 553.37, 1077.80 550.44 C 1083.04 547.51, 1085.35 545.90, 1088.77 542.38 C 1092.19 538.86, 1093.52 536.91, 1094.89 532.86 C 1096.25 528.81, 1096.21 526.60, 1095.61 522.14 C 1095.00 517.69, 1093.92 515.39, 1091.84 510.58 C 1089.77 505.78, 1088.11 503.30, 1085.22 498.12 C 1082.34 492.93, 1080.38 490.23, 1077.43 484.67 C 1074.47 479.12, 1072.69 476.21, 1070.44 470.33 C 1068.19 464.45, 1067.05 461.42, 1066.16 455.27 C 1065.28 449.12, 1065.10 445.97, 1066.02 439.59 C 1066.93 433.21, 1067.87 429.87, 1070.72 423.35 C 1073.57 416.84, 1075.73 413.40, 1080.25 407.01 C 1084.77 400.61, 1087.78 397.21, 1093.31 391.39 C 1098.83 385.57, 1102.15 382.51, 1107.89 377.90 C 1113.62 373.29, 1116.91 371.20, 1121.98 368.33 C 1127.05 365.47, 1129.62 364.57, 1133.23 363.55 C 1136.84 362.53, 1138.20 362.53, 1140.04 363.22 C 1141.88 363.92, 1142.27 364.50, 1142.43 367.03 C 1142.59 369.56, 1142.50 371.41, 1140.85 375.85 C 1139.20 380.30, 1137.81 383.18, 1134.19 389.25 C 1130.57 395.32, 1128.17 398.88, 1122.75 406.22 C 1117.33 413.56, 1113.95 417.77, 1107.07 425.95 C 1100.20 434.13, 1096.21 438.67, 1088.38 447.12 C 1080.55 455.57, 1076.25 460.05, 1067.93 468.21 C 1059.60 476.36, 1055.13 480.60, 1046.75 487.90 C 1038.37 495.20, 1034.00 498.83, 1026.01 504.69 C 1018.02 510.56, 1013.99 513.24, 1006.79 517.23 C 999.59 521.21, 996.03 522.76, 990.02 524.61 C 984.02 526.45, 981.20 526.80, 976.77 526.45 C 972.33 526.09, 970.59 525.43, 967.86 522.83 C 965.13 520.23, 964.01 518.49, 963.12 513.44 C 962.23 508.39, 962.21 505.09, 963.40 497.60 C 964.58 490.10, 965.91 485.41, 969.04 475.96 C 972.18 466.52, 974.48 460.95, 979.07 450.36 C 983.66 439.77, 986.70 433.81, 991.99 423.01 C 997.28 412.20, 1000.50 406.27, 1005.53 396.32 C 1010.56 386.37, 1013.35 381.22, 1017.13 373.26 C 1020.90 365.30, 1022.75 361.73, 1024.40 356.53 C 1026.04 351.33, 1026.48 349.16, 1025.35 347.27 C 1024.22 345.39, 1022.49 345.41, 1018.74 347.13 C 1014.99 348.85, 1012.31 351.24, 1006.60 355.88 C 1000.89 360.52, 997.30 363.82, 990.18 370.33 C 983.07 376.85, 978.81 381.04, 971.04 388.48 C 963.26 395.92, 958.88 400.41, 951.29 407.52 C 943.70 414.63, 939.66 418.50, 933.08 424.01 C 926.50 429.53, 923.26 432.12, 918.40 435.10 C 913.54 438.08, 911.54 438.79, 908.78 438.93 C 906.02 439.07, 905.45 438.63, 904.59 435.79 C 903.72 432.95, 903.65 430.51, 904.44 424.74 C 905.24 418.98, 906.35 414.91, 908.55 406.96 C 910.75 399.01, 912.56 393.90, 915.46 385.01 C 918.37 376.12, 920.36 370.79, 923.06 362.51 C 925.76 354.22, 927.33 349.80, 928.95 343.58 C 930.57 337.36, 931.60 334.45, 931.16 331.41 C 930.71 328.37, 929.24 327.52, 926.72 328.37 C 924.21 329.22, 922.46 331.25, 918.59 335.67 C 914.72 340.10, 912.44 343.27, 907.37 350.50 C 902.31 357.73, 899.31 362.27, 893.26 371.82 C 887.22 381.38, 883.76 387.05, 877.13 398.29 C 870.50 409.53, 866.84 415.93, 860.11 428.02 C 853.39 440.11, 849.82 446.80, 843.51 458.73 C 837.21 470.66, 834.02 477.08, 828.58 487.67 C 823.15 498.26, 820.59 503.67, 816.32 511.67 C 812.06 519.67, 810.03 523.29, 807.26 527.66 C 804.49 532.04, 803.58 533.29, 802.48 533.55 C 801.38 533.82, 801.41 532.97, 801.76 529.00 C 802.11 525.02, 802.38 521.48, 804.22 513.67 C 806.07 505.87, 807.60 500.44, 810.98 489.97 C 814.36 479.51, 816.76 473.07, 821.11 461.34 C 825.45 449.62, 828.20 442.96, 832.72 431.36 C 837.23 419.75, 839.72 413.56, 843.68 403.33 C 847.64 393.10, 849.66 387.93, 852.53 380.22 C 855.39 372.51, 856.47 369.51, 858.00 364.79 C 859.53 360.07, 860.04 358.34, 860.19 356.62 C 860.35 354.90, 859.57 354.69, 858.77 356.20" style="stroke: #53195D; fill: #53195D;"/></svg>