<?xml version="1.0" encoding="UTF-8"?><svg id="Calque_2" xmlns="http://www.w3.org/2000/svg" viewBox="0 0 378.29 59.55"><defs><style>.cls-1{fill:#fff;}</style></defs><g id="Calque_1-2"><g><g><path class="cls-1" d="M81.13,48.36h-5.11V20.18h5.11v28.18Z"/><path class="cls-1" d="M112.58,25.29h-11.26v23.07h-5.11V25.29h-11.28v-5.11h27.65v5.11Z"/><path class="cls-1" d="M156.07,40.07c0,1.01-.13,1.92-.38,2.72-.26,.81-.59,1.52-1.01,2.13-.42,.62-.91,1.14-1.47,1.57-.56,.43-1.15,.79-1.75,1.06-.6,.28-1.22,.48-1.84,.61-.62,.13-1.21,.2-1.76,.2h-19.71v-5.11h19.71c.98,0,1.75-.29,2.29-.87,.54-.58,.82-1.35,.82-2.32,0-.47-.07-.9-.22-1.3s-.35-.73-.62-1.02c-.27-.29-.6-.51-.98-.67-.39-.16-.82-.24-1.29-.24h-11.75c-.83,0-1.72-.15-2.67-.44s-1.84-.77-2.66-1.42-1.5-1.51-2.04-2.58c-.54-1.06-.82-2.36-.82-3.89s.27-2.83,.82-3.88c.54-1.05,1.23-1.91,2.04-2.58,.82-.66,1.71-1.14,2.66-1.43s1.85-.44,2.67-.44h17.39v5.11h-17.39c-.97,0-1.73,.29-2.27,.88-.54,.59-.82,1.37-.82,2.34s.27,1.76,.82,2.33c.54,.57,1.3,.85,2.27,.85h11.79c.55,.01,1.13,.09,1.75,.23,.62,.14,1.23,.35,1.84,.64s1.19,.65,1.74,1.09c.55,.44,1.04,.97,1.46,1.58,.43,.62,.76,1.32,1.01,2.12,.25,.8,.37,1.7,.37,2.71Z"/><path class="cls-1" d="M186.9,29.61c0,1.17-.15,2.21-.44,3.12-.29,.92-.69,1.73-1.17,2.43-.48,.7-1.05,1.3-1.7,1.8s-1.32,.91-2.01,1.23c-.69,.32-1.4,.55-2.11,.7-.71,.14-1.39,.22-2.01,.22h-2.06v9.26h-5.15v-9.26h-2.04c-.63,0-1.3-.07-2.01-.22-.71-.14-1.42-.38-2.12-.7-.7-.32-1.37-.73-2.01-1.23-.64-.5-1.21-1.1-1.7-1.8-.49-.7-.88-1.51-1.18-2.44-.29-.92-.44-1.96-.44-3.12v-9.43h5.11v9.43c0,.67,.1,1.27,.31,1.8,.21,.53,.5,.99,.88,1.37,.38,.38,.84,.67,1.39,.87,.54,.2,1.15,.3,1.82,.3h9.22c.48-.08,.98-.18,1.49-.3,.51-.12,.98-.34,1.4-.64,.42-.3,.77-.72,1.04-1.26,.27-.54,.41-1.25,.41-2.14v-9.43h5.11v9.43Z"/><path class="cls-1" d="M218.59,40.07c0,1.01-.13,1.92-.38,2.72-.26,.81-.59,1.52-1.01,2.13-.42,.62-.91,1.14-1.47,1.57s-1.15,.79-1.75,1.06c-.6,.28-1.22,.48-1.84,.61s-1.21,.2-1.76,.2h-19.71v-5.11h19.71c.98,0,1.75-.29,2.29-.87,.54-.58,.82-1.35,.82-2.32,0-.47-.07-.9-.22-1.3s-.35-.73-.62-1.02c-.27-.29-.6-.51-.98-.67s-.82-.24-1.29-.24h-11.75c-.83,0-1.72-.15-2.67-.44s-1.84-.77-2.66-1.42c-.82-.66-1.5-1.51-2.04-2.58-.54-1.06-.82-2.36-.82-3.89s.27-2.83,.82-3.88,1.23-1.91,2.04-2.58c.82-.66,1.71-1.14,2.66-1.43s1.85-.44,2.67-.44h17.39v5.11h-17.39c-.97,0-1.73,.29-2.27,.88-.54,.59-.82,1.37-.82,2.34s.27,1.76,.82,2.33c.54,.57,1.3,.85,2.27,.85h11.79c.55,.01,1.13,.09,1.75,.23,.62,.14,1.23,.35,1.84,.64s1.19,.65,1.74,1.09c.55,.44,1.04,.97,1.46,1.58,.43,.62,.76,1.32,1.01,2.12,.25,.8,.37,1.7,.37,2.71Z"/><path class="cls-1" d="M248.01,25.29h-11.26v23.07h-5.11V25.29h-11.28v-5.11h27.65v5.11Z"/><path class="cls-1" d="M277.23,48.36h-18.43c-.71,0-1.48-.12-2.32-.37-.84-.25-1.62-.66-2.33-1.23-.71-.57-1.31-1.31-1.79-2.22-.48-.91-.72-2.03-.72-3.35V22.75c0-.35,.07-.69,.2-1s.31-.59,.54-.83c.23-.24,.5-.42,.82-.55s.66-.2,1.02-.2h23.01v5.11h-20.48v15.9c0,.67,.18,1.18,.53,1.53s.87,.53,1.55,.53h18.4v5.11Zm-2.3-11.52h-16.13v-5.15h16.13v5.15Z"/><path class="cls-1" d="M314.97,48.36h-5.15V31.58l-9.06,15.94c-.22,.41-.53,.71-.93,.92-.4,.21-.83,.31-1.29,.31s-.86-.1-1.25-.31c-.39-.21-.69-.52-.91-.92l-9.1-15.94v16.78h-5.11V22.36c0-.59,.17-1.11,.52-1.57,.35-.46,.8-.77,1.37-.92,.28-.07,.55-.09,.83-.07s.54,.08,.8,.18c.26,.1,.49,.24,.7,.41,.21,.18,.39,.39,.53,.64l11.63,20.22,11.63-20.22c.3-.5,.72-.85,1.25-1.06,.53-.21,1.08-.24,1.66-.1,.55,.16,1,.46,1.36,.92,.35,.46,.53,.98,.53,1.57v26Z"/><path class="cls-1" d="M346.37,48.36h-18.43c-.71,0-1.48-.12-2.32-.37-.84-.25-1.62-.66-2.33-1.23-.71-.57-1.31-1.31-1.79-2.22-.48-.91-.72-2.03-.72-3.35V22.75c0-.35,.07-.69,.2-1s.31-.59,.54-.83c.23-.24,.5-.42,.82-.55s.66-.2,1.02-.2h23.01v5.11h-20.48v15.9c0,.67,.18,1.18,.53,1.53s.87,.53,1.55,.53h18.4v5.11Zm-2.3-11.52h-16.13v-5.15h16.13v5.15Z"/><path class="cls-1" d="M378.29,40.07c0,1.01-.13,1.92-.38,2.72-.26,.81-.59,1.52-1.01,2.13-.42,.62-.91,1.14-1.47,1.57s-1.15,.79-1.75,1.06c-.6,.28-1.22,.48-1.84,.61s-1.21,.2-1.76,.2h-19.71v-5.11h19.71c.98,0,1.75-.29,2.29-.87,.54-.58,.82-1.35,.82-2.32,0-.47-.07-.9-.22-1.3s-.35-.73-.62-1.02c-.27-.29-.6-.51-.98-.67s-.82-.24-1.29-.24h-11.75c-.83,0-1.72-.15-2.67-.44s-1.84-.77-2.66-1.42c-.82-.66-1.5-1.51-2.04-2.58-.54-1.06-.82-2.36-.82-3.89s.27-2.83,.82-3.88,1.23-1.91,2.04-2.58c.82-.66,1.71-1.14,2.66-1.43s1.85-.44,2.67-.44h17.39v5.11h-17.39c-.97,0-1.73,.29-2.27,.88-.54,.59-.82,1.37-.82,2.34s.27,1.76,.82,2.33c.54,.57,1.3,.85,2.27,.85h11.79c.55,.01,1.13,.09,1.75,.23,.62,.14,1.23,.35,1.84,.64s1.19,.65,1.74,1.09c.55,.44,1.04,.97,1.46,1.58,.43,.62,.76,1.32,1.01,2.12,.25,.8,.37,1.7,.37,2.71Z"/></g><path class="cls-1" d="M1.27,59.55c-.7,0-1.27-.57-1.27-1.27V10.25c0-.71,.58-1.28,1.28-1.28H25.13c.7,0,1.27,.57,1.27,1.27v4.09c0,.71-.57,1.28-1.28,1.28H7.9c-.7,0-1.27,.57-1.27,1.27V51.64c0,.71,.57,1.28,1.28,1.28H42.67c.71,0,1.28-.57,1.28-1.28V28.12c0-.7,.57-1.27,1.27-1.27h4.09c.71,0,1.28,.57,1.28,1.28v30.13c0,.71-.58,1.29-1.29,1.29H1.27Zm19.1-19.1c-.7,0-1.27-.57-1.27-1.27v-9.79c0-.77,.52-1.34,1.25-1.34h2.58c4.07,0,4.24-.87,5.78-2.41l.07-.07,9.05-11.61c.93-.94,1.46-2.23,1.46-3.55V1.27c0-.7,.57-1.27,1.27-1.27h13.39c.7,0,1.27,.57,1.27,1.27V14.59c0,.74-.6,1.34-1.34,1.34h-8.32c-1.39,.02-2.72,.54-3.74,1.48l-.1,.09-8.47,11.08c-.93,1.23-1.76,1.93-1.76,4.31v6.31c0,.7-.57,1.26-1.26,1.26h-9.86Z"/></g></g></svg>