<?xml version="1.0" encoding="utf-8"?>
<svg xmlns="http://www.w3.org/2000/svg" viewBox="0 0 156.43 74.56">
  <g id="Calque_2" data-name="Calque 2">
    <g id="Calque_1-2" data-name="Calque 1">
      <g>
        <g>
          <path d="M78.18,6h0a19.39,19.39,0,0,0,0,38.77h0A19.35,19.35,0,0,0,91.86,11.71,18.93,18.93,0,0,0,78.18,6Zm6.76,29.34H71.49V32.24H84.94ZM78.71,29.8h-.23a7.2,7.2,0,0,1-7.07-7.3h0v-.3a7.19,7.19,0,0,1,7.45-7.07,7,7,0,0,1,6,3l-3,2.29a3.62,3.62,0,0,0-3.12-1.68,3.48,3.48,0,0,0-3.34,3.73v.07c0,2.13,1.37,3.81,3.34,3.81A3.86,3.86,0,0,0,82,24.56l3,2.13A6.88,6.88,0,0,1,78.71,29.8Z" style="fill: #1d1d1b"/>
          <path d="M78.18,0a25.4,25.4,0,1,0,25.39,25.39h0A25.39,25.39,0,0,0,78.18,0ZM100,19.62a1.49,1.49,0,0,1-.16,1l-.45-.3a.64.64,0,0,0,.15-.53h0a.58.58,0,0,0-.68-.31h0a.49.49,0,0,0-.38.61.6.6,0,0,0,.38.38l-.16.46a.73.73,0,0,1,.54-.23h.07a1.05,1.05,0,0,1,1.22.91,1,1,0,0,1-.23.91l-.38-.38v-.45h0a.49.49,0,0,0-.61-.38h0a.57.57,0,0,0-.45.61.51.51,0,0,0,.3.38l-.23.45a.87.87,0,0,1,.61-.23h0a1,1,0,0,1,1.14,1,.89.89,0,0,1-.38.92L99.92,24a.7.7,0,0,0,.23-.46h0a.47.47,0,0,0-.61-.38h0a.43.43,0,0,0-.46.53.66.66,0,0,0,.31.46l-.31.45a1,1,0,0,1-.53-.83h0v-.08a1.25,1.25,0,0,1,.38-.91,1.2,1.2,0,0,1-.61-.84h0a1,1,0,0,1,.31-.91,1,1,0,0,1-.69-.76h0v-.08a1.11,1.11,0,0,1,.76-1.29h0A1,1,0,0,1,100,19.62Zm-1.9,5.77A19.85,19.85,0,0,1,78.25,45.31v0h0a19.94,19.94,0,0,1-14.14-34A19.55,19.55,0,0,1,78.18,5.47h0a19.92,19.92,0,0,1,14.06,5.78A20.14,20.14,0,0,1,98.1,25.39Zm1.36-7.6a1.12,1.12,0,0,1-.07,1l-.46-.31a.62.62,0,0,0,.08-.53h0a.57.57,0,0,0-.69-.3h0a.46.46,0,0,0-.3.68.93.93,0,0,0,.38.38l-.15.54a1,1,0,0,1-.76-.69h0v-.08a1,1,0,0,1,.68-1.29h.08C98.63,16.88,99.24,17.18,99.46,17.79ZM98.7,16a1.06,1.06,0,0,1,0,1l-.45-.22a.72.72,0,0,0,0-.54h0a.62.62,0,0,0-.69-.22h0a.57.57,0,0,0-.3.68.51.51,0,0,0,.46.3l-.16.54a1.19,1.19,0,0,1-.83-.61V16.8a1,1,0,0,1,.53-1.37h.08A1,1,0,0,1,98.7,16Zm-.91-1.75a1.15,1.15,0,0,1,.08,1L97.33,15a.62.62,0,0,0,0-.53s0-.08-.07-.08a.5.5,0,0,0-.69-.08h0a.63.63,0,0,0-.22.69.65.65,0,0,0,.45.3l-.07.53a.93.93,0,0,1-.84-.53h0a1.08,1.08,0,0,1,.38-1.44h.08A1,1,0,0,1,97.79,14.22Zm-1.06-1.68a1,1,0,0,1,.15,1l-.53-.15a.67.67,0,0,0-.08-.53l-.08-.08a.47.47,0,0,0-.68-.07h0a.49.49,0,0,0-.15.68.53.53,0,0,0,.45.23v.53a1.09,1.09,0,0,1-.91-.45h0v-.08a1,1,0,0,1,.31-1.45.07.07,0,0,0,.07-.07A1.12,1.12,0,0,1,96.73,12.54Zm-1.14-1.67a1,1,0,0,1,.22.91l-.53-.07a.67.67,0,0,0-.07-.53l-.08-.08a.48.48,0,0,0-.68.08s-.08,0-.08.07a.43.43,0,0,0,0,.69.68.68,0,0,0,.53.22v.54a.89.89,0,0,1-.91-.38l.08-.08h0a1.08,1.08,0,0,1,.15-1.52h0A.92.92,0,0,1,95.59,10.87ZM94.22,9.5a1,1,0,0,1,.3.92L94,10.34c0-.15,0-.38-.15-.46l-.08-.07a.48.48,0,0,0-.68.07L93,10a.48.48,0,0,0,.08.68c.15.16.3.23.45.16l.08.53a1.14,1.14,0,0,1-1-.31h0a1.16,1.16,0,0,1,0-1.52h0A1.26,1.26,0,0,1,94.22,9.5ZM92.85,8.14a.86.86,0,0,1,.38.91H92.7a.9.9,0,0,0-.15-.46h-.08a.51.51,0,0,0-.69.15h0a.59.59,0,0,0,0,.76.45.45,0,0,0,.54.08l.15.53a1.09,1.09,0,0,1-1-.23h.08l-.08-.07a1,1,0,0,1-.08-1.45h0A.94.94,0,0,1,92.85,8.14ZM87.83,5a1,1,0,0,1,.61.76l-.53.15a.51.51,0,0,0-.31-.38h0a.56.56,0,0,0-.68.3h0a.53.53,0,0,0,.23.69.7.7,0,0,0,.53,0l.23.45a.9.9,0,0,1,.15-.6.08.08,0,0,1,.08-.08A1.06,1.06,0,0,1,89.58,6a.93.93,0,0,1,.53.83h-.53a.61.61,0,0,0-.3-.45h0a.51.51,0,0,0-.69.22h0a.51.51,0,0,0,.15.69.72.72,0,0,0,.54,0l.22.45a.7.7,0,0,1,.23-.53l.08-.07a1.06,1.06,0,0,1,1.44-.23.94.94,0,0,1,.46.83h-.53A.53.53,0,0,0,91,7.3h0a.5.5,0,0,0-.69.15v.08a.49.49,0,0,0,.16.68.67.67,0,0,0,.53.08l.15.53a.94.94,0,0,1-1-.15v.07A.07.07,0,0,1,90,8.67a.86.86,0,0,1-.38-.92.92.92,0,0,1-1-.07h-.15a.87.87,0,0,1-.46-.84,1.15,1.15,0,0,1-1,0h0a1,1,0,0,1-.46-1.37V5.4A.78.78,0,0,1,87.83,5ZM86,4.18a1,1,0,0,1,.68.69L86.16,5a.73.73,0,0,0-.31-.38h0a.46.46,0,0,0-.6.38c-.08.3,0,.61.3.68a.67.67,0,0,0,.53-.07l.23.45a.93.93,0,0,1-1,.15h-.07a1,1,0,0,1-.61-1.36h0A1,1,0,0,1,86,4.18Zm-3.73-1A1.22,1.22,0,0,1,83,3.8L82.59,4a.51.51,0,0,0-.38-.3.57.57,0,0,0-.61.45h0a.52.52,0,0,0,.38.61.73.73,0,0,0,.53-.15l.3.38a.9.9,0,0,1,0-.61h0a1.12,1.12,0,0,1,1.3-.76,1,1,0,0,1,.76.68l-.54.23A.87.87,0,0,0,84,4.18h0a.52.52,0,0,0-.3,1A.5.5,0,0,0,84.18,5l.38.38a1.22,1.22,0,0,1-1,.23H83.5a.92.92,0,0,1-.69-.69,1.11,1.11,0,0,1-1,.31A1.1,1.1,0,0,1,81,4V4A1.22,1.22,0,0,1,82.28,3.19ZM80.3,3a.93.93,0,0,1,.84.53l-.46.3a.49.49,0,0,0-.45-.3h-.08a.52.52,0,0,0-.53.53h0c.08.23.23.53.53.53a.54.54,0,0,0,.46-.23l.38.38a.91.91,0,0,1-.91.38H80A1,1,0,0,1,79.09,4V3.88A1,1,0,0,1,80.3,3Zm-2-.16a1.1,1.1,0,0,1,.91.46l-.46.3a.52.52,0,0,0-.45-.22h0c-.31,0-.46.22-.46.53h0a.52.52,0,0,0,.53.53.55.55,0,0,0,.46-.23l.46.31a1.11,1.11,0,0,1-.92.45h-.07a1.09,1.09,0,0,1-1.07-1.06V3.8A1,1,0,0,1,78.33,2.81Zm-3.88.38a.88.88,0,0,1,.91.31L75,3.8c-.15-.15-.3-.23-.45-.15h0a.49.49,0,0,0-.38.61h0a.57.57,0,0,0,.6.45.48.48,0,0,0,.38-.3l.46.23A.87.87,0,0,1,75.36,4h0a1,1,0,0,1,1-1.14.9.9,0,0,1,.84.38l-.38.38a.56.56,0,0,0-.46-.23h0A.47.47,0,0,0,76,4h0a.43.43,0,0,0,.53.46A.64.64,0,0,0,77,4.18l.46.31a1.06,1.06,0,0,1-.84.53H76.5a1.25,1.25,0,0,1-.91-.38.89.89,0,0,1-.84.61h-.07a1.15,1.15,0,0,1-1.22-.92h0A1.15,1.15,0,0,1,74.45,3.19Zm-3.88,1a1.15,1.15,0,0,1,1,.08l-.3.45a.65.65,0,0,0-.54-.07h0a.49.49,0,0,0-.22.68V5.4a.45.45,0,0,0,.61.3.93.93,0,0,0,.38-.38L72,5.4a1.77,1.77,0,0,1-.31-.46h0a1,1,0,0,1,.76-1.29,1.19,1.19,0,0,1,1,.23l-.38.38a.64.64,0,0,0-.53-.15h0a.56.56,0,0,0-.3.68v.08a.47.47,0,0,0,.6.38.62.62,0,0,0,.38-.38l.46.15a1,1,0,0,1-.76.68h0a1.09,1.09,0,0,1-1-.23,1.13,1.13,0,0,1-.68.76h-.08a1,1,0,0,1-1.29-.68V5.47A1.06,1.06,0,0,1,70.57,4.18Zm-1.82.69a1.08,1.08,0,0,1,1,0l-.23.53a.62.62,0,0,0-.53,0h0a.46.46,0,0,0-.23.68v.08a.56.56,0,0,0,.68.3A.52.52,0,0,0,69.74,6l.53.07a1.22,1.22,0,0,1-.61.76h-.08a1,1,0,0,1-1.36-.53h0A1.11,1.11,0,0,1,68.75,4.87Zm-3.42,2a.93.93,0,0,1,1-.15l-.16.53a.48.48,0,0,0-.53.08h-.08a.59.59,0,0,0-.07.76h0a.49.49,0,0,0,.68.15.52.52,0,0,0,.23-.46h.46a.82.82,0,0,1-.38-.38.07.07,0,0,0-.08-.07A1.46,1.46,0,0,1,67,5.78a1.15,1.15,0,0,1,1-.08l-.23.53a.7.7,0,0,0-.53,0h0a.49.49,0,0,0-.15.69h0a.52.52,0,0,0,1-.23l.54.15a.94.94,0,0,1-.54.84v.07h0a1.06,1.06,0,0,1-1,0,1.1,1.1,0,0,1-.46.92h-.08a1.08,1.08,0,0,1-1.44-.31V8.29A1,1,0,0,1,65.33,6.84Zm-1.6,1.22a1,1,0,0,1,.91-.23l-.07.53a.7.7,0,0,0-.54.08L64,8.52A.49.49,0,0,0,64,9.2h0a.58.58,0,0,0,.76.08A.65.65,0,0,0,65,8.82l.53-.08a.83.83,0,0,1-.38.92h0l-.07.07a1,1,0,0,1-1.45-.15h0A1,1,0,0,1,63.73,8.06ZM62.29,9.35a1,1,0,0,1,.91-.3l-.08.53c-.15,0-.38,0-.45.15h0a.57.57,0,0,0,.07.76h0a.5.5,0,0,0,.76,0,.64.64,0,0,0,.15-.53l.54-.08a1.14,1.14,0,0,1-.31,1h0a1.16,1.16,0,0,1-1.52,0h0A1.09,1.09,0,0,1,62.29,9.35Zm-1.37,1.37a.87.87,0,0,1,.91-.38v.53a.9.9,0,0,0-.46.15v.08a.49.49,0,0,0,.16.68l.07.08a.49.49,0,0,0,.69-.08.44.44,0,0,0,.07-.53l.53-.15a1.11,1.11,0,0,1-.22,1V12h0a1.07,1.07,0,0,1-1.52.08h0A.86.86,0,0,1,60.92,10.72Zm-1.14,1.67a1,1,0,0,1,.83-.45v.53a.51.51,0,0,0-.45.23.59.59,0,0,0,.15.76l.08.07a.48.48,0,0,0,.68-.15.67.67,0,0,0,.08-.53l.53-.15a1,1,0,0,1-.15,1h0a.07.07,0,0,1-.08.07,1,1,0,0,1-1.45.15h-.07A1.25,1.25,0,0,1,59.78,12.39ZM58.71,14a.94.94,0,0,1,.84-.53l.07.53a.46.46,0,0,0-.45.23h0a.52.52,0,0,0,.23.68h.07a.5.5,0,0,0,.69-.15.7.7,0,0,0,0-.53l.45-.23a1,1,0,0,1-.07,1.06h0a1,1,0,0,1-1.45.38H59A1,1,0,0,1,58.71,14Zm-.91,1.75a1,1,0,0,1,.76-.61l.15.53a.51.51,0,0,0-.38.31.07.07,0,0,1-.07.07c-.16.31,0,.53.3.69h0a.52.52,0,0,0,.68-.23.62.62,0,0,0,0-.53l.54-.23a1.15,1.15,0,0,1,0,1h0a1.12,1.12,0,0,1-1.45.45h0A1.07,1.07,0,0,1,57.8,15.74Zm-1.37,3.72A1.08,1.08,0,0,1,57,18.7l.23.54a.82.82,0,0,0-.38.38h0a.51.51,0,0,0,.38.6h0a.47.47,0,0,0,.61-.38.5.5,0,0,0-.16-.53l.38-.3a1.23,1.23,0,0,1-.53-.08H57.5a1.06,1.06,0,0,1-.61-1.37,1,1,0,0,1,.68-.68l.15.53a.64.64,0,0,0-.38.38h0a.48.48,0,0,0,.38.61h0a.57.57,0,0,0,.69-.31.67.67,0,0,0-.08-.53l.46-.3a1.14,1.14,0,0,1,.15,1h0a1.1,1.1,0,0,1-.68.61,1.2,1.2,0,0,1,.22,1h0v.08a1,1,0,0,1-1.29.68h0A.85.85,0,0,1,56.43,19.46ZM56,21.36a1.22,1.22,0,0,1,.6-.76l.23.46a.51.51,0,0,0-.3.38h0c0,.3.15.53.45.53h0a.51.51,0,0,0,.61-.38.73.73,0,0,0-.15-.53l.38-.38a1.23,1.23,0,0,1,.3,1.06,1.08,1.08,0,0,1-1.21.84h-.08A1.09,1.09,0,0,1,56,21.36Zm.22,4a.46.46,0,0,0,.54.45h0a.52.52,0,0,0,.53-.53.53.53,0,0,0-.23-.45l.3-.38a1.51,1.51,0,0,1-.6.15h-.08a1,1,0,0,1-.91-1.14.94.94,0,0,1,.53-.84l.3.46c-.15.07-.22.22-.3.45a.52.52,0,0,0,.53.54h0c.31,0,.53-.16.53-.46a.55.55,0,0,0-.22-.46l.38-.38a.7.7,0,0,1,.38.84h0a1,1,0,0,1-.54.84,1.06,1.06,0,0,1,.46.91h0a1,1,0,0,1-1.06,1.06h0a1.09,1.09,0,0,1-1.07-1.06,1.06,1.06,0,0,1,.46-.91l.3.45a.47.47,0,0,0-.23.46Zm-.07,1,.38.38a.66.66,0,0,0-.23.45h0a.47.47,0,0,0,.61.38H57c.31,0,.46-.23.46-.53a.64.64,0,0,0-.3-.46l.22-.3a1,1,0,0,1,.54.91h0v.08a1,1,0,0,1-1,1.14h0a1.09,1.09,0,0,1-1.14-1A1.2,1.2,0,0,1,56.13,26.31ZM57,33A1.15,1.15,0,0,1,57,32l.46.3a.63.63,0,0,0-.08.53h0a.52.52,0,0,0,.68.23h0a.46.46,0,0,0,.31-.68A.93.93,0,0,0,58,32l.15-.46a.58.58,0,0,1-.46.38h0a1.07,1.07,0,0,1-1.06-1.75l.46.31A.61.61,0,0,0,57,31h0a.57.57,0,0,0,.69.3h0a.5.5,0,0,0,.38-.6.6.6,0,0,0-.38-.38l.15-.46a.69.69,0,0,1-.53.23h0a1.06,1.06,0,0,1-1.22-.91.89.89,0,0,1,.31-.92l.38.38a.55.55,0,0,0-.16.46h0a.5.5,0,0,0,.61.38h0a.58.58,0,0,0,.46-.61.51.51,0,0,0-.31-.38l.23-.46a1.34,1.34,0,0,1,.53.84h0a1,1,0,0,1-.3.91,1.15,1.15,0,0,1,.68.76h0v.08a1,1,0,0,1-.22.91,1.16,1.16,0,0,1,.76.69h0a1.06,1.06,0,0,1-.61,1.36h-.08A1.07,1.07,0,0,1,57,33Zm.69,1.82a1.15,1.15,0,0,1,0-1l.45.23a.7.7,0,0,0,0,.53h0c.23.31.54.38.76.23h0a.5.5,0,0,0,.23-.68.49.49,0,0,0-.38-.31l.15-.53a1.18,1.18,0,0,1,.84.61h0a1,1,0,0,1-.53,1.37h-.08A1,1,0,0,1,57.65,34.82Zm.91,1.75a1.15,1.15,0,0,1-.08-1l.54.23a.62.62,0,0,0,0,.53v.08a.5.5,0,0,0,.76.07h0a.51.51,0,0,0,.22-.68c-.07-.15-.3-.23-.45-.3l.07-.54a.94.94,0,0,1,.84.54h0A1.07,1.07,0,0,1,60.08,37h0A1.11,1.11,0,0,1,58.56,36.57Zm1.06,1.67a1.21,1.21,0,0,1-.15-1l.53.16a.67.67,0,0,0,.08.53l.08.07a.48.48,0,0,0,.68.08h.08a.49.49,0,0,0,.15-.68.53.53,0,0,0-.46-.23v-.53a1.11,1.11,0,0,1,.92.45h0l.07.08a1.08,1.08,0,0,1-.3,1.44h-.08A1.26,1.26,0,0,1,59.62,38.24Zm1.15,1.6a1,1,0,0,1-.23-.91l.53.07a.63.63,0,0,0,.08.53l.07.08a.49.49,0,0,0,.69-.08.07.07,0,0,0,.07-.07.43.43,0,0,0,0-.69.64.64,0,0,0-.45-.22V38a1,1,0,0,1,.91.46h-.08l.08.08A1,1,0,0,1,62.29,40h0A1.08,1.08,0,0,1,60.77,39.84Zm1.44,1.44a.86.86,0,0,1-.3-.91l.53.08a.73.73,0,0,0,.15.53h0a.59.59,0,0,0,.76-.08l.08-.07a.49.49,0,0,0-.08-.69.48.48,0,0,0-.53-.15l-.08-.53a1.11,1.11,0,0,1,1,.3h0a1.16,1.16,0,0,1,0,1.52h0A1,1,0,0,1,62.21,41.28Zm1.37,1.37a.85.85,0,0,1-.38-.91h.53a.9.9,0,0,0,.15.46H64a.49.49,0,0,0,.68-.16l.08-.07a.49.49,0,0,0-.08-.69.44.44,0,0,0-.53-.07L64,40.68a1.11,1.11,0,0,1,1,.22h-.08A1.07,1.07,0,0,1,65,42.42h0A.86.86,0,0,1,63.58,42.65Zm3.27,2.21a.92.92,0,0,1-.53-.76l.53-.08a.64.64,0,0,0,.3.46h0a.53.53,0,0,0,.69-.23s0-.08.07-.08a.46.46,0,0,0-.23-.68.62.62,0,0,0-.53,0L66.92,43a.81.81,0,0,1-.22.53v.08a1.17,1.17,0,0,1-1.53.23,1,1,0,0,1-.45-.84h.53a.56.56,0,0,0,.23.46h0a.5.5,0,0,0,.68-.15.08.08,0,0,1,.08-.08.49.49,0,0,0-.15-.68.65.65,0,0,0-.54-.08L65.4,42a.93.93,0,0,1,1,.15h0a.08.08,0,0,1,.08.08,1,1,0,0,1,.38.91,1,1,0,0,1,1,.07h0a1,1,0,0,1,.38,1.45h0A1,1,0,0,1,66.85,44.86Zm1.75.91A1.18,1.18,0,0,1,68,45l.53-.15a.51.51,0,0,0,.3.38h0a.57.57,0,0,0,.69-.31h0a.52.52,0,0,0-.23-.68.62.62,0,0,0-.53,0l-.31-.46a1.33,1.33,0,0,1,1.07,0h0A1,1,0,0,1,70,45.16h0A.91.91,0,0,1,68.6,45.77Zm1.82.76a1,1,0,0,1-.68-.68l.53-.16a.68.68,0,0,0,.3.38h0a.46.46,0,0,0,.61-.38h0a.56.56,0,0,0-.3-.68.66.66,0,0,0-.54.08l-.3-.46a1.14,1.14,0,0,1,1-.15h0a1.06,1.06,0,0,1,.61,1.37v.07A.83.83,0,0,1,70.42,46.53Zm3.73,1.06a1.17,1.17,0,0,1-.76-.6l.45-.23a.51.51,0,0,0,.38.3h0c.31,0,.53-.15.53-.45h0a.51.51,0,0,0-.38-.61.73.73,0,0,0-.53.15l-.38-.38a.8.8,0,0,1,0,.61h0a1.11,1.11,0,0,1-1.29.76,1,1,0,0,1-.76-.69l.53-.22a1,1,0,0,0,.38.38h0a.54.54,0,0,0,.61-.38h0a.48.48,0,0,0-.3-.61.51.51,0,0,0-.54.15l-.38-.38a1.24,1.24,0,0,1,1-.23h.08a.89.89,0,0,1,.68.69,1.14,1.14,0,0,1,1-.31h.08a1.1,1.1,0,0,1,.83,1.22h0A1,1,0,0,1,74.15,47.59ZM78.1,48a1.09,1.09,0,0,1-.91-.45l.45-.31a.54.54,0,0,0,.46.23h0a.47.47,0,0,0,.46-.53h0a.52.52,0,0,0-.54-.53.51.51,0,0,0-.45.23l-.46-.31a1.37,1.37,0,0,1,.15.61V47a1,1,0,0,1-1.14.91.93.93,0,0,1-.83-.53l.45-.31a.74.74,0,0,0,.46.31h0a.52.52,0,0,0,.53-.54h0c0-.3-.15-.53-.45-.53a.54.54,0,0,0-.46.23l-.38-.38a.93.93,0,0,1,.91-.38h0a.94.94,0,0,1,.84.53,1.09,1.09,0,0,1,.91-.45h.08a.93.93,0,0,1,1,1.06V47A1,1,0,0,1,78.1,48Zm2-.07a.9.9,0,0,1-.92-.38l.38-.38a.7.7,0,0,0,.46.23h0a.59.59,0,0,0,.46-.61h0a.43.43,0,0,0-.54-.46.59.59,0,0,0-.45.31L79,46.3a1.06,1.06,0,0,1,.91-.53H80a1.09,1.09,0,0,1,1.14,1v.07A1.22,1.22,0,0,1,80.08,47.9Zm2-.31a.87.87,0,0,1-.91-.3l.38-.38c.15.15.31.23.46.15h0a.51.51,0,0,0,.38-.61h0a.58.58,0,0,0-.61-.45.5.5,0,0,0-.38.3l-.46-.23a1,1,0,0,1,.84-.6h0a1.05,1.05,0,0,1,1.22.91h0A1.1,1.1,0,0,1,82.05,47.59Zm1.9-.38a1.48,1.48,0,0,1-1-.15l.3-.45a.44.44,0,0,0,.53.07h0a.52.52,0,0,0,.31-.61h0a.48.48,0,0,0-.61-.38.65.65,0,0,0-.38.38l-.53-.15a.87.87,0,0,1,.76-.68h0a1.11,1.11,0,0,1,1.29.76v.07C84.87,46.45,84.49,47.06,84,47.21Zm1.9-.6a1.13,1.13,0,0,1-1-.08l.3-.46a.59.59,0,0,0,.53.08h0a.52.52,0,0,0,.23-.68h0a.46.46,0,0,0-.61-.31,1,1,0,0,0-.38.38l-.53-.15a1,1,0,0,1,.68-.76h0a1.11,1.11,0,0,1,1.37.68h0A1,1,0,0,1,85.85,46.61Zm3.5-1.6a1.15,1.15,0,0,1-1,.08l.23-.54a.62.62,0,0,0,.53,0s.08,0,.08-.07a.49.49,0,0,0,.08-.69h0a.53.53,0,0,0-.69-.23.52.52,0,0,0-.3.46l-.46-.08a1.14,1.14,0,0,1,.38.46v.08a1,1,0,0,1-.53,1.37,1.15,1.15,0,0,1-1,0l.23-.46a.62.62,0,0,0,.53,0h0a.61.61,0,0,0,.23-.69h0a.57.57,0,0,0-.68-.3.79.79,0,0,0-.39.46l-.53-.08a1.23,1.23,0,0,1,.61-.84h.08a1,1,0,0,1,.91.08.9.9,0,0,1,.61-.84h0a1.09,1.09,0,0,1,1.44.38v.08A.91.91,0,0,1,89.35,45Zm1.75-1.07a.94.94,0,0,1-1,.16l.15-.54a.48.48,0,0,0,.54-.07l.07-.08a.48.48,0,0,0,.08-.68.08.08,0,0,0-.08-.08.47.47,0,0,0-.68-.07A.53.53,0,0,0,90,43h-.53a1.09,1.09,0,0,1,.45-.91h0L90,42a1.08,1.08,0,0,1,1.44.31h0A1.22,1.22,0,0,1,91.1,43.94Zm1.6-1.21a1,1,0,0,1-.92.23l.16-.54a.46.46,0,0,0,.45-.07l.08-.08a.48.48,0,0,0-.08-.68h0a.58.58,0,0,0-.76-.08.7.7,0,0,0-.23.53l-.53.08a.83.83,0,0,1,.38-.91h0l.08-.08a1,1,0,0,1,1.44.15h0A.94.94,0,0,1,92.7,42.73Zm1.37-1.37a1,1,0,0,1-.92.3l.08-.53a.73.73,0,0,0,.53-.15h0a.6.6,0,0,0-.07-.76h0a.58.58,0,0,0-.76,0,.47.47,0,0,0-.16.53l-.53.08a1.14,1.14,0,0,1,.31-1h0l.07-.08a1,1,0,0,1,1.45.08h0A1,1,0,0,1,94.07,41.36ZM95.43,40a.85.85,0,0,1-.91.38v-.53a.9.9,0,0,0,.46-.15s0-.08.07-.08a.48.48,0,0,0-.15-.68l-.07-.08a.49.49,0,0,0-.69.08.44.44,0,0,0-.07.53l-.54.07a1.09,1.09,0,0,1,.23-1v.07a.07.07,0,0,1,.08-.07,1,1,0,0,1,1.44-.08h0A1,1,0,0,1,95.43,40Zm3.2-5a1,1,0,0,1-.76.61l-.15-.53a.51.51,0,0,0,.38-.3h0a.57.57,0,0,0-.31-.69h0a.52.52,0,0,0-.68.23.62.62,0,0,0,0,.53l-.46.23a.83.83,0,0,1,.61.15.07.07,0,0,1,.07.08,1.08,1.08,0,0,1,.31,1.44.75.75,0,0,1-.76.53l-.08-.53a.64.64,0,0,0,.46-.3h0a.53.53,0,0,0-.23-.69H97a.47.47,0,0,0-.68.23.62.62,0,0,0,0,.53l-.46.23a.73.73,0,0,1,.54.23h.07a1.16,1.16,0,0,1,.23,1.52,1,1,0,0,1-.84.46v-.54a.54.54,0,0,0,.46-.22h0a.5.5,0,0,0-.15-.69L96,37.41a.48.48,0,0,0-.68.15.67.67,0,0,0-.08.53l-.53.15a.94.94,0,0,1,.15-1h0a.07.07,0,0,1,.08-.07,1,1,0,0,1,.91-.38A1.09,1.09,0,0,1,96,35.73v-.07h0a.82.82,0,0,1,.76-.46,1.08,1.08,0,0,1,0-1h0a1,1,0,0,1,1.37-.45h0A.84.84,0,0,1,98.63,35Zm2.05-7.52a.93.93,0,0,1-.53.83l-.31-.45c.16-.08.23-.23.31-.46h0a.52.52,0,0,0-.53-.53h0c-.31,0-.54.15-.54.45a.55.55,0,0,0,.23.46l-.3.38a1.41,1.41,0,0,1,.61-.08h.07a1.08,1.08,0,0,1,.76,1.3,1.18,1.18,0,0,1-.61.76l-.22-.46a.5.5,0,0,0,.3-.38h0c0-.3-.15-.53-.46-.53h0a.51.51,0,0,0-.6.38.73.73,0,0,0,.15.53l-.38.38a.9.9,0,0,1,.61,0h.07a1,1,0,0,1,.69,1.29,1.06,1.06,0,0,1-.61.76l-.23-.53a.93.93,0,0,0,.38-.38h0a.52.52,0,0,0-.38-.61h0a.48.48,0,0,0-.61.38.7.7,0,0,0,.08.54l-.38.3a.82.82,0,0,1,.61.08h.07a1.06,1.06,0,0,1,.61,1.36,1,1,0,0,1-.68.69l-.16-.53a.62.62,0,0,0,.38-.38v-.08a.49.49,0,0,0-.38-.61h0a.56.56,0,0,0-.68.31.63.63,0,0,0,.08.53l-.61.3a1.18,1.18,0,0,1-.16-1h0a1.14,1.14,0,0,1,.77-.68,1.19,1.19,0,0,1-.23-1h0v-.07a.9.9,0,0,1,.68-.69,1.11,1.11,0,0,1-.3-1h0V29a1,1,0,0,1,.61-.76,1,1,0,0,1-.38-1h0a1,1,0,0,1,1.14-.91h.07A1,1,0,0,1,100.68,27.45Zm-.38-1.07-.3-.45a.55.55,0,0,0,.22-.46h0a.43.43,0,0,0-.53-.46h0a.52.52,0,0,0-.53.54.53.53,0,0,0,.23.45l-.31.46a1.09,1.09,0,0,1-.45-.91h0a1,1,0,0,1,1.06-1.07h.08a1.08,1.08,0,0,1,1.06,1.07A1.44,1.44,0,0,1,100.3,26.38Z" style="fill: #1d1d1b"/>
        </g>
        <g>
          <path d="M19.37,68.64h0a6,6,0,0,1,5.9-6h.14A6.55,6.55,0,0,1,30,64.18l-1.57,2a4.39,4.39,0,0,0-3-1.19,3.44,3.44,0,0,0-3.29,3.68h0a3.43,3.43,0,0,0,3.29,3.68h.26A3.67,3.67,0,0,0,28,71.53V69.82H25.41V67.59h5.12v5a7.57,7.57,0,0,1-5,1.84,6,6,0,0,1-6.17-5.52Z" style="fill: #1d1d1b"/>
          <path d="M37.25,62.66h2.36l5,11.69H42l-1-2.63h-5l-1,2.63H32.26ZM40,69.49l-1.58-3.81-1.57,3.81Z" style="fill: #1d1d1b"/>
          <path d="M46.32,72.44,47.9,70.6a5.07,5.07,0,0,0,3.54,1.45c1.05,0,1.71-.4,1.71-1h0c0-.66-.39-1-2.36-1.45-2.37-.65-3.94-1.31-3.94-3.54h0c0-2.1,1.71-3.55,4.07-3.55a7.16,7.16,0,0,1,4.33,1.45l-1.31,2a6.58,6.58,0,0,0-3-1.18c-1.05,0-1.45.39-1.45,1h0c0,.78.53,1,2.5,1.57,2.36.66,3.68,1.45,3.68,3.55h0c0,2.36-1.71,3.67-4.21,3.67A9.09,9.09,0,0,1,46.32,72.44Z" style="fill: #1d1d1b"/>
          <path d="M61,65H57.5V62.66h9.58V65H63.54v9.33H60.91Z" style="fill: #1d1d1b"/>
          <path d="M69.85,62.67h5.39a4.77,4.77,0,0,1,3.41,1.18,3.9,3.9,0,0,1,1,2.63h0a3.65,3.65,0,0,1-2.5,3.67l2.89,4.21h-3l-2.49-3.68h-2v3.68H70V62.67Zm5.25,5.65c1.32,0,2-.66,2-1.71h0a1.73,1.73,0,0,0-2-1.71H72.61v3.29H75.1Z" style="fill: #1d1d1b"/>
          <path d="M81.87,68.44h0a6.17,6.17,0,0,1,6.43-5.91,6.25,6.25,0,0,1,5.91,5.91h0a6.11,6.11,0,0,1-6,6H88a6,6,0,0,1-6.17-5.78Zm9.71,0h0a3.62,3.62,0,0,0-3.41-3.68H88a3.51,3.51,0,0,0-3.55,3.42v.13h0A3.53,3.53,0,0,0,87.91,72H88a3.41,3.41,0,0,0,3.41-3.54c.13.13.13.13.13,0Z" style="fill: #1d1d1b"/>
          <path d="M97.37,62.66h2.37l5.51,7.22V62.66h2.5V74.35h-2.24L99.87,67v7.36h-2.5Z" style="fill: #1d1d1b"/>
          <path d="M110.63,68.5h0a6.11,6.11,0,0,1,6-6h.13A6,6,0,0,1,123,68.24v.26h0a6.11,6.11,0,0,1-6,6h-.13a6,6,0,0,1-6.17-5.77C110.76,68.77,110.63,68.63,110.63,68.5Zm9.72,0h0a3.62,3.62,0,0,0-3.42-3.67h-.13a3.5,3.5,0,0,0-3.54,3.41v.13h0a3.53,3.53,0,0,0,3.41,3.68h.13a3.51,3.51,0,0,0,3.55-3.42Z" style="fill: #1d1d1b"/>
          <path d="M125.77,62.66h2.76l3,5,3-5h2.76V74.35h-2.5V66.73l-3.28,5h0l-3.28-5v7.62h-2.5Z" style="fill: #1d1d1b"/>
          <path d="M141.49,62.66h2.63V74.35h-2.63Z" style="fill: #1d1d1b"/>
          <path d="M147.64,62.73h8.79V65h-6.3v2.36h5.51v2.23h-5.51v2.5h6.3v2.23H147.5Z" style="fill: #1d1d1b"/>
          <path d="M0,68.5H0a5.88,5.88,0,0,1,5.78-6H6a5.56,5.56,0,0,1,4.59,1.83L9.06,66.14a4.27,4.27,0,0,0-3-1.31,3.41,3.41,0,0,0-3.41,3.54v.13h0a3.42,3.42,0,0,0,3.28,3.68H6a4.27,4.27,0,0,0,3-1.31l1.57,1.57A5.14,5.14,0,0,1,6,74.54a5.8,5.8,0,0,1-6-5.77Z" style="fill: #1d1d1b"/>
          <path d="M11.19,67.39h5v2.23h-5Z" style="fill: #1d1d1b"/>
        </g>
      </g>
    </g>
  </g>
</svg>
