<svg xmlns="http://www.w3.org/2000/svg" id="canvas" viewBox="291.318 393.397 1196.985 117.008"><path d="M 303.33,409.07 C 302.39 410.28, 302.13 411.75, 301.84 415.25 C 301.55 418.75, 301.87 421.19, 301.88 426.57 C 301.89 431.95, 301.92 435.69, 301.91 442.14 C 301.91 448.59, 301.89 452.32, 301.86 458.81 C 301.83 465.31, 301.79 468.76, 301.76 474.60 C 301.72 480.44, 301.74 483.25, 301.68 488.03 C 301.63 492.81, 301.35 495.06, 301.48 498.51 C 301.61 501.95, 301.59 503.45, 302.34 505.23 C 303.08 507.01, 304.03 507.46, 305.20 507.40 C 306.37 507.34, 307.64 506.82, 308.19 504.91 C 308.73 503.01, 308.47 501.58, 307.94 497.89 C 307.42 494.20, 306.46 491.68, 305.55 486.46 C 304.65 481.25, 304.17 477.92, 303.42 471.79 C 302.67 465.66, 302.34 462.08, 301.81 455.82 C 301.27 449.56, 301.05 446.23, 300.74 440.49 C 300.42 434.74, 300.29 431.91, 300.21 427.08 C 300.14 422.26, 300.27 419.98, 300.36 416.34 C 300.45 412.70, 300.89 410.92, 300.65 408.87 C 300.40 406.82, 299.64 406.13, 299.14 406.08 C 298.63 406.04, 297.81 406.83, 298.13 408.64 C 298.45 410.44, 299.10 411.97, 300.74 415.09 C 302.38 418.21, 303.88 420.44, 306.34 424.23 C 308.80 428.03, 310.22 430.40, 313.05 434.08 C 315.87 437.75, 317.40 439.68, 320.48 442.61 C 323.56 445.54, 325.13 446.82, 328.46 448.72 C 331.79 450.62, 333.58 451.42, 337.13 452.10 C 340.68 452.79, 342.63 452.85, 346.19 452.15 C 349.75 451.44, 351.59 450.65, 354.93 448.58 C 358.28 446.51, 359.88 445.03, 362.93 441.79 C 365.98 438.55, 367.44 436.42, 370.18 432.36 C 372.93 428.30, 374.28 425.78, 376.65 421.48 C 379.02 417.19, 380.15 414.65, 382.02 410.90 C 383.88 407.14, 385.36 405.35, 385.98 402.69 C 386.59 400.04, 385.90 398.47, 385.08 397.61 C 384.27 396.75, 382.76 396.78, 381.88 398.41 C 381.00 400.05, 380.86 401.81, 380.67 405.80 C 380.48 409.79, 380.79 412.70, 380.92 418.36 C 381.06 424.02, 381.13 427.68, 381.36 434.11 C 381.58 440.53, 381.64 444.17, 382.06 450.47 C 382.48 456.77, 382.75 459.97, 383.47 465.60 C 384.18 471.22, 384.63 473.91, 385.63 478.61 C 386.62 483.32, 387.21 485.39, 388.45 489.11 C 389.69 492.82, 390.23 494.54, 391.82 497.20 C 393.41 499.87, 394.57 500.89, 396.39 502.44 C 398.22 503.98, 399.33 504.47, 400.94 504.93 C 402.55 505.39, 403.55 505.25, 404.43 504.74 C 405.31 504.22, 405.48 503.26, 405.33 502.36 C 405.17 501.45, 404.52 501.18, 403.66 500.21 C 402.79 499.25, 402.25 498.89, 401.02 497.55 C 399.80 496.20, 399.03 495.58, 397.52 493.49 C 396.02 491.41, 394.99 490.30, 393.50 487.11 C 392.01 483.92, 391.26 481.96, 390.06 477.55 C 388.86 473.13, 388.31 470.51, 387.50 465.04 C 386.69 459.58, 386.38 456.42, 386.01 450.22 C 385.64 444.02, 385.58 440.40, 385.64 434.05 C 385.70 427.70, 385.92 424.07, 386.30 418.48 C 386.68 412.89, 387.39 410.10, 387.55 406.10 C 387.70 402.09, 387.94 400.38, 387.09 398.46 C 386.24 396.54, 384.85 396.17, 383.30 396.51 C 381.74 396.85, 380.65 397.74, 379.33 400.14 C 378.00 402.55, 378.13 404.76, 376.66 408.52 C 375.19 412.29, 374.16 414.81, 371.98 418.97 C 369.80 423.13, 368.40 425.56, 365.76 429.32 C 363.12 433.08, 361.61 434.99, 358.80 437.76 C 355.98 440.53, 354.48 441.59, 351.71 443.18 C 348.93 444.76, 347.61 445.15, 344.92 445.67 C 342.24 446.19, 340.99 446.21, 338.27 445.77 C 335.56 445.33, 334.13 444.92, 331.35 443.46 C 328.57 442.00, 327.10 441.05, 324.38 438.49 C 321.65 435.93, 320.16 434.17, 317.71 430.65 C 315.26 427.14, 314.09 424.76, 312.11 420.89 C 310.12 417.02, 309.55 414.46, 307.78 411.29 C 306.02 408.11, 305.26 406.43, 303.30 405.00 C 301.35 403.56, 299.74 403.46, 298.01 404.12 C 296.27 404.79, 295.28 405.86, 294.63 408.33 C 293.97 410.79, 294.53 412.64, 294.74 416.44 C 294.96 420.23, 295.31 422.44, 295.70 427.30 C 296.09 432.16, 296.26 434.98, 296.68 440.75 C 297.10 446.51, 297.34 449.85, 297.81 456.14 C 298.27 462.44, 298.58 466.03, 299.03 472.22 C 299.47 478.41, 299.75 481.77, 300.04 487.09 C 300.32 492.41, 300.06 495.09, 300.45 498.81 C 300.84 502.53, 301.00 503.98, 301.99 505.68 C 302.99 507.38, 304.30 507.52, 305.43 507.33 C 306.56 507.13, 307.25 506.55, 307.64 504.71 C 308.03 502.87, 307.65 501.51, 307.37 498.15 C 307.09 494.79, 306.57 492.61, 306.25 487.90 C 305.93 483.18, 305.85 480.39, 305.76 474.58 C 305.67 468.78, 305.70 465.33, 305.81 458.86 C 305.92 452.38, 306.05 448.66, 306.29 442.22 C 306.53 435.79, 306.73 432.06, 307.01 426.70 C 307.28 421.34, 307.77 418.92, 307.68 415.42 C 307.58 411.91, 307.42 410.43, 306.55 409.16 C 305.68 407.89, 304.27 407.85, 303.33 409.07" style="stroke: black; fill: black;"/><path d="M 456.56,462.24 C 456.58 460.91, 456.00 459.81, 454.59 458.52 C 453.18 457.24, 452.02 456.44, 449.50 455.82 C 446.99 455.20, 445.10 454.80, 442.02 455.42 C 438.93 456.03, 437.19 456.89, 434.09 458.89 C 430.99 460.89, 429.39 462.40, 426.52 465.42 C 423.65 468.43, 422.03 470.39, 419.73 473.98 C 417.44 477.57, 416.26 479.71, 415.05 483.35 C 413.84 486.99, 413.35 489.01, 413.69 492.19 C 414.02 495.36, 414.90 497.00, 416.73 499.22 C 418.56 501.44, 420.06 502.35, 422.83 503.29 C 425.61 504.24, 427.45 504.41, 430.61 503.94 C 433.77 503.47, 435.51 502.66, 438.64 500.94 C 441.77 499.22, 443.38 497.93, 446.25 495.35 C 449.11 492.78, 450.52 491.12, 452.97 488.08 C 455.43 485.04, 456.77 483.22, 458.50 480.16 C 460.23 477.09, 461.31 475.12, 461.62 472.74 C 461.94 470.37, 461.06 468.96, 460.09 468.29 C 459.13 467.62, 457.92 467.99, 456.80 469.39 C 455.67 470.79, 454.67 472.38, 454.47 475.27 C 454.27 478.16, 454.90 480.42, 455.79 483.83 C 456.68 487.24, 457.36 489.34, 458.91 492.32 C 460.45 495.31, 461.47 496.65, 463.52 498.77 C 465.57 500.89, 466.74 501.71, 469.16 502.92 C 471.58 504.13, 472.95 504.59, 475.60 504.81 C 478.25 505.03, 480.14 505.21, 482.42 504.03 C 484.70 502.86, 486.57 500.69, 487.00 498.92 C 487.42 497.16, 486.09 495.69, 484.56 495.22 C 483.03 494.74, 481.06 496.08, 479.34 496.55 C 477.63 497.02, 477.37 497.55, 475.98 497.56 C 474.59 497.57, 473.77 497.34, 472.39 496.61 C 471.00 495.87, 470.22 495.42, 469.07 493.90 C 467.92 492.37, 467.41 491.38, 466.63 488.99 C 465.86 486.60, 465.55 484.83, 465.18 481.94 C 464.80 479.06, 465.34 477.13, 464.76 474.57 C 464.19 472.01, 463.57 470.61, 462.32 469.15 C 461.07 467.68, 460.05 467.06, 458.51 467.24 C 456.98 467.42, 455.97 468.18, 454.65 470.05 C 453.33 471.92, 453.31 473.83, 451.89 476.59 C 450.48 479.35, 449.63 481.16, 447.58 483.83 C 445.53 486.51, 444.13 487.94, 441.63 489.96 C 439.13 491.99, 437.58 492.81, 435.08 493.96 C 432.58 495.12, 431.24 495.26, 429.12 495.75 C 427.00 496.24, 426.01 496.50, 424.47 496.42 C 422.93 496.33, 422.21 496.26, 421.43 495.33 C 420.64 494.39, 420.53 493.73, 420.55 491.76 C 420.56 489.79, 420.56 488.34, 421.50 485.49 C 422.45 482.65, 423.29 480.57, 425.26 477.53 C 427.23 474.49, 428.79 472.66, 431.35 470.27 C 433.91 467.88, 435.62 466.85, 438.04 465.59 C 440.47 464.33, 441.56 464.22, 443.48 463.98 C 445.40 463.73, 446.13 464.13, 447.65 464.39 C 449.18 464.64, 449.72 465.07, 451.10 465.23 C 452.47 465.40, 453.43 465.81, 454.52 465.22 C 455.62 464.62, 456.55 463.58, 456.56 462.24" style="stroke: black; fill: black;"/><path d="M 502.54,420.52 C 501.50 421.12, 500.77 421.64, 500.25 423.77 C 499.73 425.90, 499.66 427.46, 499.94 431.17 C 500.22 434.87, 500.90 437.49, 501.64 442.30 C 502.38 447.11, 502.84 450.12, 503.65 455.23 C 504.46 460.34, 504.91 463.17, 505.70 467.86 C 506.48 472.54, 506.92 474.75, 507.58 478.65 C 508.24 482.55, 508.34 484.35, 509.00 487.36 C 509.67 490.37, 510.13 491.82, 510.90 493.70 C 511.66 495.58, 512.06 496.00, 512.84 496.76 C 513.61 497.53, 514.20 497.48, 514.77 497.53 C 515.34 497.58, 515.59 497.08, 515.70 497.01 C 515.81 496.95, 515.17 497.21, 515.31 497.20 C 515.45 497.20, 515.96 497.40, 516.39 497.00 C 516.82 496.60, 517.27 496.24, 517.44 495.20 C 517.60 494.16, 517.56 493.72, 517.20 491.81 C 516.83 489.91, 516.44 488.54, 515.60 485.68 C 514.77 482.81, 513.99 481.22, 513.01 477.49 C 512.03 473.75, 511.55 471.58, 510.72 466.98 C 509.88 462.39, 509.44 459.57, 508.84 454.51 C 508.24 449.45, 507.96 446.42, 507.71 441.67 C 507.45 436.92, 507.69 434.30, 507.57 430.75 C 507.45 427.20, 507.54 425.92, 507.12 423.93 C 506.69 421.94, 506.36 421.49, 505.44 420.80 C 504.53 420.12, 503.58 419.93, 502.54 420.52" style="stroke: black; fill: black;"/><path d="M 487.80,474.68 C 488.50 475.46, 488.85 475.70, 490.45 475.91 C 492.06 476.13, 493.20 476.48, 495.83 475.76 C 498.46 475.03, 500.00 473.81, 503.59 472.28 C 507.18 470.76, 509.59 469.95, 513.78 468.12 C 517.96 466.29, 520.38 465.29, 524.52 463.15 C 528.67 461.01, 530.81 459.84, 534.51 457.41 C 538.21 454.98, 540.03 453.67, 543.04 450.98 C 546.05 448.29, 547.41 446.86, 549.57 443.95 C 551.72 441.04, 552.74 439.43, 553.81 436.43 C 554.88 433.42, 555.02 431.67, 554.91 428.93 C 554.81 426.20, 554.49 424.67, 553.28 422.75 C 552.07 420.83, 550.88 419.84, 548.87 419.33 C 546.86 418.83, 545.21 418.98, 543.22 420.24 C 541.24 421.51, 539.91 422.78, 538.92 425.68 C 537.93 428.57, 538.28 430.74, 538.28 434.74 C 538.29 438.74, 538.50 441.20, 538.95 445.67 C 539.39 450.13, 539.74 452.69, 540.51 457.05 C 541.28 461.40, 541.81 463.61, 542.80 467.43 C 543.79 471.24, 544.22 473.05, 545.44 476.12 C 546.66 479.18, 547.34 480.56, 548.91 482.74 C 550.48 484.91, 551.36 485.81, 553.28 487.01 C 555.20 488.21, 556.34 488.63, 558.52 488.74 C 560.70 488.85, 561.97 488.61, 564.18 487.58 C 566.40 486.55, 567.61 485.68, 569.59 483.59 C 571.57 481.50, 572.27 479.76, 574.08 477.13 C 575.88 474.50, 577.00 472.87, 578.61 470.45 C 580.22 468.04, 581.19 466.66, 582.13 465.05 C 583.08 463.44, 583.08 462.65, 583.35 462.41 C 583.61 462.17, 583.27 462.59, 583.44 463.83 C 583.61 465.08, 583.57 466.41, 584.18 468.63 C 584.80 470.86, 585.29 472.42, 586.51 474.95 C 587.72 477.49, 588.59 478.99, 590.27 481.32 C 591.94 483.64, 592.90 484.81, 594.89 486.58 C 596.89 488.35, 597.95 489.13, 600.23 490.17 C 602.51 491.21, 603.82 491.63, 606.28 491.79 C 608.73 491.95, 610.10 491.76, 612.52 490.99 C 614.93 490.21, 616.17 489.52, 618.34 487.91 C 620.52 486.31, 621.59 485.17, 623.39 482.94 C 625.20 480.71, 626.15 479.22, 627.37 476.78 C 628.58 474.34, 629.29 472.70, 629.46 470.74 C 629.63 468.78, 628.99 467.58, 628.22 466.96 C 627.46 466.34, 626.44 466.57, 625.65 467.63 C 624.86 468.68, 624.28 469.99, 624.26 472.23 C 624.24 474.47, 624.56 476.28, 625.54 478.83 C 626.53 481.38, 627.60 482.86, 629.19 484.98 C 630.77 487.11, 631.77 488.23, 633.46 489.46 C 635.16 490.69, 636.27 490.93, 637.67 491.15 C 639.08 491.37, 639.79 491.13, 640.50 490.57 C 641.20 490.01, 641.26 489.14, 641.21 488.33 C 641.15 487.52, 640.68 487.35, 640.21 486.54 C 639.74 485.73, 639.48 485.46, 638.85 484.28 C 638.22 483.09, 637.65 482.40, 637.07 480.62 C 636.48 478.83, 636.53 477.53, 635.93 475.35 C 635.34 473.18, 635.16 471.67, 634.08 469.74 C 633.00 467.81, 632.15 466.70, 630.53 465.69 C 628.92 464.68, 627.76 464.35, 626.02 464.67 C 624.28 465.00, 623.22 465.76, 621.82 467.31 C 620.41 468.86, 620.11 470.36, 618.98 472.43 C 617.86 474.49, 617.38 475.80, 616.20 477.62 C 615.01 479.43, 614.34 480.26, 613.07 481.48 C 611.79 482.70, 611.12 483.13, 609.84 483.72 C 608.56 484.30, 607.95 484.45, 606.66 484.42 C 605.37 484.39, 604.67 484.23, 603.39 483.57 C 602.12 482.91, 601.45 482.47, 600.30 481.12 C 599.15 479.78, 598.61 478.86, 597.64 476.84 C 596.67 474.81, 596.42 473.41, 595.45 471.00 C 594.48 468.59, 594.17 467.02, 592.78 464.77 C 591.39 462.53, 590.45 461.19, 588.49 459.78 C 586.53 458.37, 585.29 457.78, 582.97 457.74 C 580.65 457.70, 579.17 458.10, 576.89 459.59 C 574.61 461.09, 573.57 462.74, 571.55 465.21 C 569.53 467.68, 568.63 469.47, 566.80 471.95 C 564.97 474.43, 563.78 475.68, 562.41 477.60 C 561.04 479.53, 560.71 480.49, 559.93 481.58 C 559.16 482.67, 559.12 482.95, 558.54 483.05 C 557.96 483.15, 557.80 482.93, 557.03 482.09 C 556.27 481.24, 555.80 480.56, 554.73 478.82 C 553.67 477.09, 552.94 476.02, 551.72 473.41 C 550.50 470.80, 549.70 469.25, 548.62 465.78 C 547.54 462.31, 546.97 460.16, 546.30 456.06 C 545.63 451.96, 545.35 449.45, 545.27 445.28 C 545.19 441.11, 545.41 438.68, 545.89 435.22 C 546.37 431.77, 547.30 430.19, 547.66 428.00 C 548.03 425.80, 547.80 425.10, 547.71 424.24 C 547.62 423.38, 547.31 423.46, 547.21 423.69 C 547.11 423.91, 547.13 424.33, 547.21 425.38 C 547.29 426.43, 547.69 427.20, 547.59 428.94 C 547.49 430.69, 547.40 431.81, 546.72 434.08 C 546.04 436.36, 545.74 437.79, 544.21 440.32 C 542.68 442.86, 541.62 444.24, 539.08 446.75 C 536.53 449.26, 534.89 450.58, 531.49 452.87 C 528.09 455.17, 526.04 456.31, 522.07 458.22 C 518.09 460.14, 515.75 461.06, 511.59 462.44 C 507.44 463.82, 505.03 464.31, 501.31 465.12 C 497.58 465.92, 495.56 465.60, 492.98 466.47 C 490.40 467.34, 489.61 468.37, 488.40 469.48 C 487.20 470.60, 487.07 471.00, 486.95 472.03 C 486.83 473.07, 487.10 473.91, 487.80 474.68" style="stroke: black; fill: black;"/><path d="M 625.44,432.44 C 625.13 431.26, 624.53 430.94, 624.28 431.18 C 624.03 431.42, 623.95 432.64, 624.20 433.66 C 624.45 434.67, 625.17 435.30, 625.53 436.26 C 625.89 437.22, 625.94 438.28, 625.99 438.45 C 626.05 438.62, 625.93 438.32, 625.82 437.11 C 625.71 435.91, 625.75 433.63, 625.44 432.44" style="stroke: black; fill: black;"/><path d="M 687.38,453.07 C 686.81 451.98, 686.11 451.51, 684.43 450.89 C 682.75 450.27, 681.47 449.94, 678.98 449.96 C 676.48 449.98, 674.71 450.24, 671.95 450.99 C 669.20 451.74, 667.56 452.36, 665.19 453.72 C 662.81 455.08, 661.51 455.88, 660.10 457.78 C 658.68 459.69, 658.12 461.00, 658.11 463.23 C 658.10 465.47, 658.48 466.91, 660.05 468.94 C 661.61 470.97, 663.00 471.95, 665.93 473.39 C 668.86 474.83, 671.01 474.96, 674.69 476.14 C 678.37 477.31, 680.64 477.93, 684.32 479.27 C 688.00 480.61, 690.11 481.46, 693.09 482.84 C 696.08 484.21, 697.38 485.14, 699.25 486.13 C 701.12 487.13, 701.86 487.32, 702.44 487.82 C 703.02 488.31, 702.90 488.28, 702.16 488.62 C 701.42 488.96, 700.59 488.92, 698.75 489.52 C 696.92 490.11, 695.67 490.71, 692.99 491.60 C 690.32 492.48, 688.55 493.24, 685.36 493.94 C 682.18 494.64, 680.18 494.85, 677.08 495.10 C 673.99 495.36, 672.36 495.04, 669.89 495.19 C 667.43 495.35, 666.39 495.55, 664.76 495.87 C 663.13 496.19, 662.46 496.17, 661.74 496.79 C 661.02 497.41, 660.74 498.05, 661.17 498.97 C 661.59 499.88, 662.16 500.52, 663.86 501.38 C 665.57 502.24, 666.93 502.99, 669.71 503.26 C 672.49 503.54, 674.35 503.08, 677.76 502.75 C 681.18 502.43, 683.20 502.17, 686.78 501.63 C 690.35 501.09, 692.42 501.00, 695.64 500.04 C 698.86 499.08, 700.61 498.53, 702.87 496.83 C 705.12 495.12, 706.07 493.77, 706.91 491.53 C 707.75 489.29, 707.79 487.88, 707.07 485.62 C 706.34 483.37, 705.53 482.09, 703.30 480.26 C 701.08 478.43, 699.27 477.94, 695.95 476.48 C 692.63 475.02, 690.43 474.43, 686.71 472.97 C 682.99 471.50, 680.75 470.70, 677.36 469.17 C 673.97 467.64, 672.30 466.47, 669.77 465.32 C 667.23 464.16, 666.08 463.83, 664.69 463.39 C 663.30 462.96, 662.90 463.20, 662.83 463.13 C 662.77 463.05, 663.23 463.22, 664.38 463.02 C 665.54 462.81, 666.62 462.53, 668.61 462.12 C 670.60 461.70, 672.02 461.39, 674.33 460.93 C 676.63 460.47, 678.08 460.35, 680.14 459.83 C 682.20 459.31, 683.19 459.04, 684.62 458.34 C 686.05 457.64, 686.73 457.38, 687.28 456.33 C 687.84 455.27, 687.95 454.16, 687.38 453.07" style="stroke: black; fill: black;"/><path d="M 875.36,416.70 C 875.18 415.36, 874.49 414.31, 872.77 412.98 C 871.05 411.66, 869.70 410.74, 866.78 410.09 C 863.85 409.44, 861.81 409.44, 858.14 409.74 C 854.48 410.03, 852.42 410.52, 848.44 411.57 C 844.47 412.62, 842.24 413.39, 838.28 415.01 C 834.32 416.62, 832.15 417.57, 828.65 419.64 C 825.15 421.71, 823.11 422.71, 820.78 425.36 C 818.45 428.00, 817.49 429.78, 817.00 432.86 C 816.50 435.95, 816.74 437.95, 818.31 440.77 C 819.88 443.60, 821.52 444.73, 824.85 446.99 C 828.18 449.24, 830.51 450.04, 834.97 452.05 C 839.43 454.07, 842.25 455.02, 847.16 457.06 C 852.08 459.09, 854.94 460.10, 859.56 462.23 C 864.18 464.35, 866.67 465.51, 870.24 467.69 C 873.82 469.87, 875.32 471.23, 877.44 473.11 C 879.56 474.98, 880.20 475.70, 880.85 477.07 C 881.49 478.43, 881.42 478.79, 880.66 479.95 C 879.90 481.11, 879.04 481.43, 877.04 482.86 C 875.03 484.29, 873.76 485.48, 870.63 487.10 C 867.50 488.72, 865.39 489.66, 861.40 490.97 C 857.42 492.27, 854.96 492.87, 850.71 493.62 C 846.45 494.37, 844.01 494.61, 840.12 494.71 C 836.23 494.81, 834.22 494.55, 831.24 494.12 C 828.27 493.69, 827.03 493.20, 825.23 492.56 C 823.43 491.92, 822.81 491.69, 822.24 490.93 C 821.68 490.17, 821.80 489.88, 822.40 488.76 C 823.00 487.63, 823.72 487.12, 825.25 485.30 C 826.78 483.48, 827.52 481.98, 830.05 479.66 C 832.58 477.34, 834.31 475.96, 837.89 473.69 C 841.46 471.41, 843.68 470.24, 847.93 468.28 C 852.18 466.32, 854.67 465.46, 859.15 463.89 C 863.63 462.32, 866.02 461.61, 870.32 460.43 C 874.62 459.25, 876.81 458.77, 880.65 457.97 C 884.48 457.18, 886.38 457.01, 889.49 456.46 C 892.60 455.91, 893.94 455.83, 896.19 455.23 C 898.45 454.62, 899.39 454.19, 900.77 453.44 C 902.15 452.69, 902.72 452.32, 903.10 451.49 C 903.49 450.65, 903.36 449.90, 902.70 449.25 C 902.04 448.60, 901.37 448.43, 899.78 448.24 C 898.19 448.06, 897.11 447.97, 894.76 448.32 C 892.41 448.68, 891.14 449.17, 888.05 450.00 C 884.96 450.83, 883.13 451.38, 879.29 452.48 C 875.46 453.57, 873.24 454.14, 868.88 455.47 C 864.52 456.80, 862.11 457.53, 857.49 459.13 C 852.88 460.72, 850.32 461.56, 845.81 463.46 C 841.29 465.35, 838.96 466.44, 834.92 468.58 C 830.89 470.72, 828.91 471.85, 825.64 474.16 C 822.38 476.48, 820.54 477.51, 818.61 480.15 C 816.68 482.80, 816.23 484.63, 816.00 487.38 C 815.77 490.13, 816.14 491.66, 817.44 493.91 C 818.75 496.16, 819.91 497.30, 822.51 498.63 C 825.11 499.97, 826.87 500.20, 830.45 500.58 C 834.02 500.95, 836.15 500.79, 840.39 500.51 C 844.63 500.23, 847.11 499.94, 851.66 499.19 C 856.20 498.44, 858.74 497.91, 863.11 496.74 C 867.48 495.57, 869.76 494.91, 873.52 493.35 C 877.28 491.78, 879.35 491.15, 881.90 488.93 C 884.44 486.71, 885.41 485.03, 886.26 482.24 C 887.11 479.46, 887.10 477.75, 886.15 475.00 C 885.19 472.26, 884.16 470.91, 881.49 468.54 C 878.83 466.17, 876.82 465.30, 872.84 463.16 C 868.85 461.01, 866.31 459.96, 861.57 457.82 C 856.83 455.68, 853.97 454.63, 849.15 452.46 C 844.32 450.29, 841.56 449.14, 837.45 446.97 C 833.33 444.81, 831.28 443.56, 828.58 441.62 C 825.87 439.68, 825.05 438.81, 823.92 437.29 C 822.79 435.77, 822.56 435.46, 822.94 434.01 C 823.33 432.57, 824.03 431.86, 825.83 430.07 C 827.64 428.29, 829.01 426.95, 831.97 425.10 C 834.92 423.24, 837.01 422.20, 840.60 420.80 C 844.19 419.40, 846.38 418.72, 849.91 418.08 C 853.44 417.44, 855.25 417.40, 858.25 417.61 C 861.24 417.82, 862.56 418.68, 864.90 419.12 C 867.24 419.57, 868.18 419.72, 869.94 419.84 C 871.70 419.95, 872.60 420.31, 873.68 419.68 C 874.77 419.06, 875.54 418.04, 875.36 416.70" style="stroke: black; fill: black;"/><path d="M 902.22,443.16 C 901.14 443.71, 900.55 444.33, 899.88 446.25 C 899.22 448.16, 898.80 449.55, 898.89 452.75 C 898.98 455.94, 899.70 458.22, 900.33 462.22 C 900.96 466.22, 901.37 468.63, 902.03 472.77 C 902.70 476.90, 903.09 479.20, 903.64 482.89 C 904.20 486.57, 904.20 488.43, 904.83 491.19 C 905.46 493.95, 905.90 495.12, 906.81 496.71 C 907.73 498.30, 908.19 498.88, 909.41 499.13 C 910.62 499.38, 912.24 498.85, 912.89 497.95 C 913.55 497.06, 913.89 494.88, 912.69 494.68 C 911.49 494.47, 907.65 495.98, 906.91 496.94 C 906.17 497.89, 907.89 499.21, 908.98 499.45 C 910.07 499.69, 911.53 499.03, 912.36 498.12 C 913.18 497.22, 913.11 496.65, 913.09 494.93 C 913.06 493.20, 912.83 492.15, 912.23 489.50 C 911.62 486.86, 910.84 485.24, 910.09 481.71 C 909.33 478.18, 908.93 475.90, 908.44 471.86 C 907.94 467.82, 907.74 465.41, 907.61 461.52 C 907.49 457.63, 907.95 455.40, 907.80 452.41 C 907.65 449.41, 907.39 448.32, 906.88 446.55 C 906.37 444.77, 906.20 444.20, 905.26 443.52 C 904.33 442.84, 903.29 442.62, 902.22 443.16" style="stroke: black; fill: black;"/><path d="M 895.67,445.49 C 896.86 445.24, 897.15 444.33, 898.39 443.18 C 899.63 442.04, 900.16 441.41, 901.87 439.76 C 903.58 438.12, 904.26 436.55, 906.96 434.96 C 909.66 433.38, 911.68 432.63, 915.39 431.83 C 919.09 431.02, 921.51 430.84, 925.47 430.94 C 929.44 431.04, 931.70 431.38, 935.20 432.32 C 938.71 433.27, 940.52 434.20, 943.00 435.69 C 945.48 437.17, 946.38 438.18, 947.60 439.73 C 948.81 441.27, 949.16 441.88, 949.07 443.40 C 948.99 444.91, 948.44 445.55, 947.18 447.31 C 945.93 449.06, 945.08 450.22, 942.80 452.16 C 940.51 454.09, 938.82 455.26, 935.74 456.98 C 932.66 458.69, 930.63 459.57, 927.41 460.73 C 924.20 461.89, 922.28 462.04, 919.65 462.77 C 917.02 463.51, 915.86 463.75, 914.27 464.42 C 912.67 465.10, 912.35 465.59, 911.66 466.14 C 910.98 466.69, 911.05 466.72, 910.84 467.16 C 910.63 467.60, 910.44 467.82, 910.62 468.33 C 910.79 468.84, 910.78 469.18, 911.70 469.71 C 912.62 470.24, 913.24 470.84, 915.24 470.98 C 917.24 471.12, 918.74 471.15, 921.69 470.41 C 924.63 469.66, 926.49 468.71, 929.96 467.24 C 933.44 465.78, 935.56 464.96, 939.07 463.09 C 942.58 461.21, 944.58 460.23, 947.50 457.87 C 950.42 455.51, 952.09 454.21, 953.69 451.30 C 955.29 448.39, 955.64 446.44, 955.51 443.33 C 955.39 440.22, 954.90 438.41, 953.05 435.75 C 951.20 433.09, 949.53 431.89, 946.26 430.04 C 942.99 428.20, 940.80 427.53, 936.68 426.53 C 932.57 425.53, 930.15 425.24, 925.67 425.06 C 921.19 424.87, 918.66 424.96, 914.27 425.61 C 909.88 426.26, 907.47 426.76, 903.73 428.29 C 899.99 429.81, 897.92 430.97, 895.58 433.24 C 893.23 435.52, 892.63 437.42, 892.00 439.66 C 891.37 441.90, 891.71 443.29, 892.44 444.45 C 893.17 445.62, 894.48 445.74, 895.67 445.49" style="stroke: black; fill: black;"/><path d="M 1000.01,449.39 C 999.73 448.22, 999.05 447.09, 997.20 446.50 C 995.35 445.91, 993.46 445.44, 990.77 446.45 C 988.09 447.46, 986.45 448.76, 983.75 451.56 C 981.05 454.35, 979.69 456.54, 977.29 460.41 C 974.89 464.29, 973.46 466.71, 971.76 470.92 C 970.05 475.12, 969.16 477.46, 968.78 481.43 C 968.41 485.40, 968.52 487.54, 969.89 490.75 C 971.25 493.95, 972.73 495.57, 975.62 497.47 C 978.51 499.36, 980.61 499.82, 984.33 500.23 C 988.06 500.65, 990.24 500.37, 994.26 499.55 C 998.28 498.73, 1000.51 497.97, 1004.42 496.15 C 1008.34 494.33, 1010.42 493.11, 1013.85 490.46 C 1017.27 487.80, 1018.98 486.19, 1021.55 482.86 C 1024.12 479.53, 1025.32 477.52, 1026.67 473.80 C 1028.03 470.09, 1028.43 467.94, 1028.33 464.28 C 1028.22 460.63, 1027.69 458.60, 1026.16 455.53 C 1024.63 452.47, 1023.22 451.01, 1020.68 448.94 C 1018.15 446.88, 1016.32 445.98, 1013.49 445.22 C 1010.66 444.47, 1008.75 444.70, 1006.53 445.17 C 1004.31 445.64, 1003.16 446.49, 1002.39 447.56 C 1001.63 448.62, 1001.90 449.61, 1002.71 450.50 C 1003.52 451.39, 1004.75 451.52, 1006.45 452.03 C 1008.16 452.55, 1009.33 452.47, 1011.24 453.07 C 1013.14 453.67, 1014.30 453.87, 1015.98 455.05 C 1017.66 456.24, 1018.53 457.07, 1019.64 458.99 C 1020.76 460.91, 1021.34 462.08, 1021.56 464.63 C 1021.78 467.18, 1021.69 468.82, 1020.74 471.74 C 1019.79 474.67, 1018.90 476.45, 1016.80 479.26 C 1014.71 482.07, 1013.23 483.53, 1010.26 485.79 C 1007.28 488.04, 1005.37 489.09, 1001.93 490.56 C 998.49 492.02, 996.43 492.54, 993.06 493.09 C 989.70 493.63, 987.86 493.60, 985.10 493.30 C 982.34 493.00, 981.11 492.62, 979.27 491.58 C 977.43 490.55, 976.78 490.04, 975.92 488.13 C 975.07 486.22, 974.69 485.00, 975.00 482.04 C 975.30 479.08, 975.89 476.88, 977.46 473.30 C 979.02 469.72, 980.44 467.32, 982.80 464.14 C 985.17 460.95, 986.97 459.34, 989.28 457.39 C 991.59 455.44, 992.84 455.25, 994.34 454.39 C 995.83 453.52, 995.90 453.46, 996.76 453.05 C 997.61 452.65, 997.95 453.10, 998.60 452.36 C 999.25 451.63, 1000.29 450.56, 1000.01 449.39" style="stroke: black; fill: black;"/><path d="M 1052.70,448.18 C 1051.65 448.74, 1051.10 449.31, 1050.42 451.18 C 1049.74 453.05, 1049.34 454.49, 1049.32 457.53 C 1049.29 460.56, 1049.92 462.70, 1050.29 466.36 C 1050.65 470.03, 1050.89 472.29, 1051.15 475.87 C 1051.42 479.45, 1051.25 481.40, 1051.61 484.28 C 1051.97 487.16, 1052.21 488.52, 1052.96 490.29 C 1053.70 492.05, 1054.63 492.58, 1055.36 493.12 C 1056.08 493.66, 1056.30 492.96, 1056.58 492.99 C 1056.86 493.02, 1056.39 493.30, 1056.75 493.27 C 1057.12 493.25, 1057.80 493.67, 1058.42 492.88 C 1059.04 492.09, 1059.62 491.21, 1059.85 489.32 C 1060.09 487.42, 1059.86 486.21, 1059.60 483.41 C 1059.34 480.61, 1058.81 478.81, 1058.55 475.33 C 1058.30 471.85, 1058.29 469.61, 1058.33 466.01 C 1058.38 462.41, 1058.93 460.28, 1058.78 457.34 C 1058.64 454.40, 1058.22 453.09, 1057.60 451.30 C 1056.99 449.51, 1056.69 449.00, 1055.71 448.38 C 1054.73 447.76, 1053.76 447.62, 1052.70 448.18" style="stroke: black; fill: black;"/><path d="M 1048.27,446.14 C 1049.52 445.78, 1049.94 444.63, 1050.95 443.47 C 1051.97 442.30, 1052.17 441.53, 1053.34 440.32 C 1054.52 439.11, 1055.02 438.30, 1056.82 437.41 C 1058.61 436.52, 1059.79 436.15, 1062.32 435.87 C 1064.84 435.59, 1066.54 435.57, 1069.43 436.02 C 1072.33 436.47, 1074.05 436.95, 1076.78 438.12 C 1079.52 439.30, 1080.97 440.19, 1083.11 441.91 C 1085.25 443.63, 1086.14 444.80, 1087.49 446.73 C 1088.84 448.67, 1089.40 449.67, 1089.86 451.58 C 1090.32 453.50, 1090.29 454.45, 1089.79 456.30 C 1089.29 458.14, 1088.69 459.05, 1087.36 460.82 C 1086.02 462.59, 1085.07 463.55, 1083.10 465.16 C 1081.14 466.77, 1079.78 467.57, 1077.53 468.88 C 1075.27 470.20, 1073.90 470.73, 1071.84 471.74 C 1069.78 472.76, 1068.67 472.95, 1067.22 473.97 C 1065.76 474.99, 1065.16 475.48, 1064.56 476.86 C 1063.97 478.25, 1063.81 479.30, 1064.26 480.89 C 1064.70 482.48, 1065.18 483.44, 1066.78 484.80 C 1068.38 486.16, 1069.56 486.80, 1072.28 487.69 C 1074.99 488.57, 1076.93 488.46, 1080.35 489.21 C 1083.77 489.96, 1085.72 490.54, 1089.36 491.44 C 1093.01 492.34, 1094.92 492.88, 1098.58 493.71 C 1102.24 494.53, 1104.10 494.95, 1107.66 495.56 C 1111.22 496.16, 1113.01 496.45, 1116.38 496.72 C 1119.75 496.99, 1121.41 497.14, 1124.50 496.91 C 1127.59 496.68, 1129.31 496.38, 1131.81 495.56 C 1134.31 494.73, 1135.48 494.01, 1137.01 492.80 C 1138.54 491.60, 1139.23 490.65, 1139.46 489.52 C 1139.69 488.39, 1139.14 487.61, 1138.17 487.14 C 1137.19 486.66, 1136.25 486.96, 1134.58 487.12 C 1132.90 487.29, 1131.97 487.54, 1129.80 487.96 C 1127.62 488.38, 1126.32 488.87, 1123.70 489.23 C 1121.09 489.58, 1119.72 489.79, 1116.72 489.75 C 1113.71 489.72, 1112.02 489.52, 1108.69 489.03 C 1105.36 488.55, 1103.55 488.19, 1100.07 487.34 C 1096.59 486.50, 1094.73 485.94, 1091.29 484.79 C 1087.85 483.64, 1085.97 482.97, 1082.87 481.57 C 1079.78 480.17, 1078.38 478.80, 1075.83 477.79 C 1073.28 476.78, 1071.93 476.54, 1070.12 476.52 C 1068.31 476.50, 1067.48 477.01, 1066.76 477.69 C 1066.05 478.37, 1065.98 479.30, 1066.55 479.93 C 1067.12 480.56, 1067.91 480.93, 1069.63 480.84 C 1071.35 480.74, 1072.69 480.39, 1075.15 479.47 C 1077.60 478.56, 1079.21 477.86, 1081.89 476.26 C 1084.57 474.66, 1086.12 473.65, 1088.55 471.47 C 1090.97 469.29, 1092.32 468.08, 1094.04 465.37 C 1095.75 462.66, 1096.50 461.02, 1097.11 457.94 C 1097.71 454.86, 1097.74 453.07, 1097.07 449.96 C 1096.41 446.85, 1095.66 445.15, 1093.77 442.39 C 1091.88 439.64, 1090.44 438.35, 1087.62 436.18 C 1084.80 434.00, 1083.05 433.01, 1079.68 431.51 C 1076.31 430.02, 1074.37 429.43, 1070.79 428.69 C 1067.20 427.94, 1065.29 427.64, 1061.75 427.79 C 1058.21 427.93, 1056.10 428.08, 1053.10 429.43 C 1050.10 430.77, 1048.58 432.31, 1046.75 434.51 C 1044.91 436.72, 1044.32 438.30, 1043.91 440.45 C 1043.51 442.60, 1043.85 444.11, 1044.72 445.25 C 1045.59 446.39, 1047.03 446.50, 1048.27 446.14" style="stroke: black; fill: black;"/><path d="M 1161.46,446.20 C 1160.38 446.86, 1159.78 447.56, 1159.14 449.68 C 1158.50 451.80, 1158.32 453.42, 1158.25 456.80 C 1158.18 460.19, 1158.51 462.61, 1158.78 466.61 C 1159.06 470.62, 1159.26 472.97, 1159.62 476.84 C 1159.98 480.70, 1160.01 482.71, 1160.59 485.93 C 1161.16 489.15, 1161.56 490.77, 1162.51 492.94 C 1163.46 495.11, 1164.30 495.74, 1165.34 496.79 C 1166.38 497.83, 1166.90 498.09, 1167.72 498.16 C 1168.54 498.23, 1169.08 497.81, 1169.46 497.13 C 1169.84 496.45, 1169.68 496.02, 1169.63 494.76 C 1169.59 493.50, 1169.61 492.85, 1169.23 490.81 C 1168.84 488.78, 1168.29 487.51, 1167.72 484.60 C 1167.15 481.68, 1166.69 479.86, 1166.37 476.23 C 1166.05 472.59, 1166.05 470.27, 1166.13 466.42 C 1166.20 462.57, 1166.67 460.25, 1166.73 456.97 C 1166.79 453.69, 1166.87 452.15, 1166.44 450.03 C 1166.00 447.91, 1165.54 447.15, 1164.54 446.39 C 1163.55 445.62, 1162.54 445.55, 1161.46 446.20" style="stroke: black; fill: black;"/><path d="M 1141.65,451.53 C 1142.46 452.10, 1142.62 452.01, 1143.92 452.09 C 1145.21 452.18, 1145.96 452.44, 1148.14 451.95 C 1150.32 451.46, 1151.65 450.52, 1154.82 449.66 C 1158.00 448.79, 1160.15 448.27, 1164.01 447.64 C 1167.88 447.01, 1170.22 446.78, 1174.14 446.50 C 1178.06 446.22, 1180.14 446.23, 1183.61 446.24 C 1187.08 446.24, 1188.80 446.67, 1191.49 446.52 C 1194.18 446.38, 1195.84 446.28, 1197.04 445.50 C 1198.25 444.72, 1198.50 443.73, 1197.49 442.61 C 1196.49 441.48, 1194.82 440.47, 1192.03 439.87 C 1189.25 439.28, 1187.22 439.56, 1183.55 439.63 C 1179.89 439.69, 1177.79 439.95, 1173.73 440.19 C 1169.67 440.43, 1167.35 440.58, 1163.26 440.83 C 1159.17 441.08, 1156.88 441.04, 1153.30 441.43 C 1149.71 441.82, 1147.82 441.85, 1145.34 442.79 C 1142.86 443.72, 1141.99 444.82, 1140.90 446.11 C 1139.80 447.41, 1139.71 448.16, 1139.87 449.24 C 1140.02 450.33, 1140.84 450.96, 1141.65 451.53" style="stroke: black; fill: black;"/><path d="M 1208.52,456.51 C 1207.38 457.22, 1206.75 458.14, 1206.07 460.35 C 1205.40 462.56, 1205.22 464.22, 1205.14 467.54 C 1205.05 470.86, 1205.37 473.25, 1205.65 476.95 C 1205.92 480.65, 1206.05 482.66, 1206.53 486.06 C 1207.01 489.46, 1207.06 491.29, 1208.05 493.95 C 1209.04 496.60, 1210.11 497.83, 1211.47 499.31 C 1212.83 500.79, 1213.77 501.23, 1214.86 501.36 C 1215.94 501.49, 1216.55 500.92, 1216.89 499.97 C 1217.24 499.02, 1216.88 498.28, 1216.60 496.62 C 1216.31 494.97, 1215.99 494.01, 1215.47 491.69 C 1214.95 489.38, 1214.39 488.06, 1214.00 485.04 C 1213.61 482.03, 1213.55 480.09, 1213.53 476.61 C 1213.50 473.14, 1213.86 470.82, 1213.86 467.66 C 1213.86 464.49, 1213.95 462.96, 1213.53 460.78 C 1213.11 458.61, 1212.76 457.64, 1211.75 456.78 C 1210.75 455.93, 1209.66 455.79, 1208.52 456.51" style="stroke: black; fill: black;"/><path d="M 1254.95,451.76 C 1253.66 451.84, 1252.74 452.35, 1251.25 453.85 C 1249.75 455.36, 1248.71 456.55, 1247.48 459.26 C 1246.24 461.98, 1245.91 464.07, 1245.07 467.44 C 1244.23 470.80, 1243.76 472.74, 1243.26 476.07 C 1242.76 479.40, 1242.39 481.09, 1242.56 484.09 C 1242.74 487.08, 1243.08 488.54, 1244.14 491.05 C 1245.21 493.56, 1245.97 494.72, 1247.88 496.65 C 1249.80 498.58, 1251.05 499.47, 1253.71 500.70 C 1256.38 501.93, 1258.04 502.29, 1261.21 502.78 C 1264.38 503.28, 1266.21 503.12, 1269.55 503.16 C 1272.89 503.19, 1274.71 503.14, 1277.91 502.96 C 1281.10 502.78, 1282.82 502.75, 1285.51 502.27 C 1288.20 501.79, 1289.53 501.38, 1291.35 500.55 C 1293.16 499.71, 1293.75 499.04, 1294.58 498.09 C 1295.41 497.15, 1295.53 496.58, 1295.49 495.84 C 1295.45 495.10, 1294.92 494.74, 1294.37 494.39 C 1293.83 494.03, 1293.71 494.21, 1292.77 494.06 C 1291.84 493.90, 1291.39 493.62, 1289.70 493.62 C 1288.01 493.62, 1286.78 493.80, 1284.32 494.06 C 1281.86 494.32, 1280.31 494.73, 1277.39 494.94 C 1274.48 495.15, 1272.72 495.25, 1269.75 495.13 C 1266.78 495.01, 1265.14 494.74, 1262.53 494.33 C 1259.91 493.92, 1258.66 493.67, 1256.67 493.09 C 1254.67 492.51, 1253.80 492.31, 1252.56 491.42 C 1251.32 490.53, 1250.92 490.11, 1250.46 488.64 C 1250.00 487.16, 1250.13 486.27, 1250.27 484.04 C 1250.41 481.81, 1250.56 480.32, 1251.17 477.50 C 1251.78 474.68, 1252.24 472.86, 1253.31 469.94 C 1254.38 467.03, 1255.60 465.49, 1256.51 462.94 C 1257.41 460.40, 1257.60 459.13, 1257.85 457.24 C 1258.09 455.34, 1258.31 454.55, 1257.73 453.45 C 1257.15 452.36, 1256.25 451.68, 1254.95 451.76" style="stroke: black; fill: black;"/><path d="M 1243.11,475.39 C 1244.13 476.20, 1245.16 476.16, 1247.24 476.20 C 1249.32 476.24, 1250.57 476.14, 1253.52 475.60 C 1256.47 475.06, 1258.44 474.27, 1261.98 473.51 C 1265.53 472.75, 1267.63 472.38, 1271.23 471.81 C 1274.83 471.24, 1276.79 471.13, 1280.00 470.66 C 1283.21 470.19, 1284.85 470.14, 1287.29 469.47 C 1289.73 468.79, 1291.26 468.31, 1292.21 467.29 C 1293.16 466.26, 1293.15 465.24, 1292.03 464.34 C 1290.91 463.44, 1289.22 462.97, 1286.62 462.80 C 1284.02 462.64, 1282.30 463.10, 1279.02 463.53 C 1275.74 463.95, 1273.87 464.42, 1270.22 464.91 C 1266.57 465.40, 1264.44 465.56, 1260.76 465.97 C 1257.09 466.37, 1254.91 466.34, 1251.85 466.95 C 1248.79 467.57, 1247.41 468.02, 1245.46 469.06 C 1243.52 470.11, 1242.59 470.91, 1242.12 472.18 C 1241.64 473.44, 1242.08 474.59, 1243.11 475.39" style="stroke: black; fill: black;"/><path d="M 1295.99,440.15 C 1294.84 440.73, 1294.30 441.56, 1293.49 443.50 C 1292.68 445.45, 1292.11 446.86, 1291.93 449.87 C 1291.76 452.89, 1292.27 455.03, 1292.61 458.60 C 1292.95 462.16, 1293.19 464.17, 1293.63 467.70 C 1294.08 471.23, 1294.20 473.02, 1294.83 476.22 C 1295.45 479.42, 1295.75 480.98, 1296.76 483.70 C 1297.77 486.41, 1298.40 487.58, 1299.86 489.78 C 1301.32 491.99, 1302.09 493.02, 1304.06 494.72 C 1306.03 496.43, 1307.22 497.21, 1309.69 498.32 C 1312.17 499.43, 1313.59 499.81, 1316.44 500.27 C 1319.30 500.74, 1320.87 500.78, 1323.97 500.66 C 1327.06 500.54, 1328.72 500.21, 1331.92 499.66 C 1335.11 499.10, 1336.80 498.67, 1339.95 497.90 C 1343.11 497.13, 1344.90 496.91, 1347.69 495.82 C 1350.48 494.73, 1352.00 493.87, 1353.89 492.43 C 1355.79 490.98, 1356.76 489.88, 1357.15 488.59 C 1357.54 487.30, 1357.06 486.46, 1355.85 485.97 C 1354.63 485.48, 1353.27 485.76, 1351.08 486.15 C 1348.88 486.53, 1347.49 487.08, 1344.87 487.91 C 1342.26 488.74, 1340.83 489.52, 1338.00 490.29 C 1335.17 491.06, 1333.56 491.37, 1330.71 491.75 C 1327.85 492.12, 1326.35 492.12, 1323.73 492.16 C 1321.10 492.19, 1319.82 492.17, 1317.59 491.94 C 1315.36 491.71, 1314.37 491.56, 1312.59 490.99 C 1310.81 490.42, 1310.04 490.10, 1308.69 489.09 C 1307.35 488.08, 1306.84 487.52, 1305.87 485.93 C 1304.90 484.35, 1304.61 483.40, 1303.85 481.17 C 1303.10 478.94, 1302.67 477.62, 1302.09 474.78 C 1301.51 471.93, 1301.24 470.23, 1300.97 466.93 C 1300.69 463.63, 1300.67 461.63, 1300.74 458.28 C 1300.81 454.93, 1301.30 452.98, 1301.31 450.18 C 1301.33 447.37, 1301.21 446.18, 1300.80 444.26 C 1300.39 442.34, 1300.21 441.41, 1299.25 440.59 C 1298.29 439.77, 1297.15 439.57, 1295.99 440.15" style="stroke: black; fill: black;"/><path d="M 1372.37,442.50 C 1371.12 442.84, 1370.30 443.44, 1369.11 445.32 C 1367.92 447.19, 1367.20 448.68, 1366.42 451.87 C 1365.64 455.06, 1365.59 457.43, 1365.20 461.27 C 1364.81 465.10, 1364.69 467.31, 1364.45 471.06 C 1364.20 474.81, 1363.95 476.70, 1363.97 480.02 C 1364.00 483.33, 1364.04 484.88, 1364.58 487.62 C 1365.11 490.36, 1365.56 491.55, 1366.65 493.73 C 1367.75 495.92, 1368.38 496.89, 1370.04 498.55 C 1371.69 500.20, 1372.67 500.94, 1374.93 502.00 C 1377.19 503.07, 1378.54 503.51, 1381.34 503.88 C 1384.13 504.25, 1385.77 504.19, 1388.92 503.85 C 1392.08 503.51, 1393.81 502.98, 1397.11 502.20 C 1400.41 501.41, 1402.18 500.88, 1405.43 499.93 C 1408.67 498.98, 1410.46 498.56, 1413.35 497.43 C 1416.24 496.30, 1417.88 495.56, 1419.88 494.27 C 1421.87 492.97, 1422.37 492.13, 1423.33 490.96 C 1424.28 489.79, 1424.61 489.28, 1424.66 488.40 C 1424.71 487.53, 1424.33 486.98, 1423.57 486.60 C 1422.81 486.21, 1422.28 486.35, 1420.86 486.48 C 1419.44 486.61, 1418.59 486.57, 1416.49 487.26 C 1414.38 487.95, 1412.99 488.84, 1410.34 489.92 C 1407.70 491.01, 1406.21 491.77, 1403.25 492.68 C 1400.28 493.59, 1398.54 493.99, 1395.53 494.49 C 1392.52 495.00, 1390.87 495.06, 1388.18 495.22 C 1385.49 495.39, 1384.20 495.39, 1382.08 495.33 C 1379.96 495.27, 1379.08 495.26, 1377.59 494.93 C 1376.10 494.59, 1375.60 494.44, 1374.64 493.64 C 1373.67 492.84, 1373.36 492.37, 1372.78 490.92 C 1372.20 489.46, 1372.06 488.58, 1371.73 486.37 C 1371.41 484.17, 1371.22 482.87, 1371.16 479.91 C 1371.09 476.96, 1371.10 475.10, 1371.41 471.60 C 1371.73 468.10, 1372.02 465.94, 1372.74 462.40 C 1373.45 458.86, 1374.31 456.86, 1374.98 453.89 C 1375.65 450.92, 1376.02 449.62, 1376.09 447.57 C 1376.17 445.51, 1376.10 444.63, 1375.36 443.62 C 1374.62 442.60, 1373.62 442.16, 1372.37 442.50" style="stroke: black; fill: black;"/><path d="M 1459.76,452.00 C 1459.50 450.73, 1458.81 449.75, 1457.07 448.78 C 1455.33 447.82, 1453.89 447.13, 1451.04 447.17 C 1448.20 447.22, 1446.15 447.54, 1442.85 449.02 C 1439.56 450.50, 1437.85 451.93, 1434.57 454.57 C 1431.28 457.21, 1429.40 458.91, 1426.41 462.21 C 1423.43 465.51, 1421.77 467.44, 1419.65 471.08 C 1417.53 474.72, 1416.43 476.76, 1415.82 480.39 C 1415.21 484.02, 1415.37 486.10, 1416.59 489.24 C 1417.81 492.38, 1419.11 494.04, 1421.92 496.10 C 1424.73 498.16, 1426.80 498.71, 1430.64 499.55 C 1434.47 500.38, 1436.77 500.45, 1441.09 500.28 C 1445.42 500.12, 1447.83 499.78, 1452.25 498.72 C 1456.68 497.67, 1459.09 496.89, 1463.23 495.00 C 1467.38 493.12, 1469.54 491.95, 1472.97 489.29 C 1476.40 486.64, 1478.06 485.03, 1480.39 481.71 C 1482.72 478.39, 1483.77 476.41, 1484.63 472.71 C 1485.49 469.00, 1485.54 466.78, 1484.70 463.19 C 1483.85 459.59, 1482.75 457.67, 1480.39 454.73 C 1478.03 451.79, 1476.26 450.45, 1472.90 448.51 C 1469.55 446.56, 1467.37 445.90, 1463.61 445.00 C 1459.86 444.10, 1457.61 443.87, 1454.13 443.99 C 1450.64 444.11, 1448.65 444.61, 1446.19 445.59 C 1443.73 446.57, 1442.96 447.64, 1441.84 448.88 C 1440.72 450.11, 1440.58 450.87, 1440.59 451.76 C 1440.60 452.65, 1441.16 453.02, 1441.89 453.31 C 1442.61 453.60, 1442.92 453.29, 1444.21 453.22 C 1445.49 453.14, 1446.24 453.25, 1448.31 452.92 C 1450.38 452.60, 1451.78 451.80, 1454.54 451.58 C 1457.30 451.35, 1459.13 451.23, 1462.12 451.80 C 1465.12 452.38, 1466.92 453.00, 1469.52 454.44 C 1472.12 455.89, 1473.39 456.97, 1475.13 459.04 C 1476.87 461.11, 1477.57 462.34, 1478.23 464.80 C 1478.89 467.26, 1478.98 468.63, 1478.43 471.34 C 1477.88 474.05, 1477.26 475.64, 1475.47 478.34 C 1473.68 481.05, 1472.38 482.53, 1469.48 484.85 C 1466.57 487.17, 1464.64 488.29, 1460.95 489.95 C 1457.25 491.60, 1454.99 492.30, 1451.00 493.12 C 1447.01 493.95, 1444.76 494.11, 1441.00 494.07 C 1437.23 494.03, 1435.18 493.68, 1432.18 492.93 C 1429.17 492.17, 1427.88 491.51, 1425.97 490.29 C 1424.07 489.07, 1423.41 488.56, 1422.67 486.81 C 1421.93 485.05, 1421.80 484.05, 1422.28 481.53 C 1422.75 479.01, 1423.30 477.23, 1425.05 474.21 C 1426.79 471.20, 1428.28 469.29, 1430.99 466.46 C 1433.70 463.64, 1435.63 462.03, 1438.60 460.09 C 1441.58 458.15, 1443.27 457.55, 1445.85 456.75 C 1448.43 455.95, 1449.61 456.30, 1451.51 456.10 C 1453.40 455.91, 1453.97 455.96, 1455.34 455.77 C 1456.71 455.57, 1457.46 455.87, 1458.35 455.12 C 1459.23 454.37, 1460.01 453.27, 1459.76 452.00" style="stroke: black; fill: black;"/></svg>